<?xml version="1.0" encoding="UTF-8"?>
<svg version="1.1" xmlns="http://www.w3.org/2000/svg" width="332" height="68">
<path d="M0 0 C109.56 0 219.12 0 332 0 C332 22.44 332 44.88 332 68 C222.44 68 112.88 68 0 68 C0 45.56 0 23.12 0 0 Z " fill="#C7C7C7" transform="translate(0,0)"/>
<path d="M0 0 C5.28 0.33 10.56 0.66 16 1 C16 21.79 16 42.58 16 64 C10.72 64 5.44 64 0 64 C0 42.88 0 21.76 0 0 Z " fill="#373737" transform="translate(197,4)"/>
<path d="M0 0 C0 21.12 0 42.24 0 64 C-4.62 64 -9.24 64 -14 64 C-14 43.21 -14 22.42 -14 1 C-2 0 -2 0 0 0 Z " fill="#747474" transform="translate(85,4)"/>
<path d="M0 0 C3.63 0.33 7.26 0.66 11 1 C11 21.79 11 42.58 11 64 C7.37 64 3.74 64 0 64 C0 42.88 0 21.76 0 0 Z " fill="#616161" transform="translate(171,4)"/>
<path d="M0 0 C109.56 0 219.12 0 332 0 C332 0.33 332 0.66 332 1 C223.76 1 115.52 1 4 1 C4 23.11 4 45.22 4 68 C2.68 68 1.36 68 0 68 C0 45.56 0 23.12 0 0 Z " fill="#25181F" transform="translate(0,0)"/>
<path d="M0 0 C2.64 0.33 5.28 0.66 8 1 C8 21.79 8 42.58 8 64 C5.36 64 2.72 64 0 64 C0 42.88 0 21.76 0 0 Z " fill="#939393" transform="translate(121,4)"/>
<path d="M0 0 C2.97 0 5.94 0 9 0 C9 20.79 9 41.58 9 63 C6.03 63 3.06 63 0 63 C0 42.21 0 21.42 0 0 Z " fill="#989898" transform="translate(155,5)"/>
<path d="M0 0 C1.98 0 3.96 0 6 0 C7 1 7 1 7.12025452 3.51197815 C7.11803391 4.62894577 7.11581329 5.74591339 7.11352539 6.89672852 C7.11344986 8.15796036 7.11337433 9.4191922 7.11329651 10.71864319 C7.1081891 12.10539794 7.10297309 13.49215229 7.09765625 14.87890625 C7.09579201 16.28995209 7.09436814 17.70099857 7.09336853 19.11204529 C7.08954379 22.83240535 7.0797139 26.5527266 7.06866455 30.27307129 C7.05844948 34.06680781 7.05387071 37.86055058 7.04882812 41.65429688 C7.03809158 49.10288231 7.0210157 56.55143572 7 64 C4.69 64 2.38 64 0 64 C0 42.88 0 21.76 0 0 Z " fill="#666666" transform="translate(40,4)"/>
<path d="M0 0 C2.31 0.33 4.62 0.66 7 1 C7 21.79 7 42.58 7 64 C4.69 64 2.38 64 0 64 C0 42.88 0 21.76 0 0 Z " fill="#858585" transform="translate(98,4)"/>
<path d="M0 0 C2.31 0 4.62 0 7 0 C7 20.79 7 41.58 7 63 C4.69 63 2.38 63 0 63 C0 42.21 0 21.42 0 0 Z " fill="#5C5C5C" transform="translate(288,5)"/>
<path d="M0 0 C2.97 0.495 2.97 0.495 6 1 C6 21.79 6 42.58 6 64 C4.02 64 2.04 64 0 64 C0 42.88 0 21.76 0 0 Z " fill="#4D4D4D" transform="translate(320,4)"/>
<path d="M0 0 C1.98 0 3.96 0 6 0 C6 20.79 6 41.58 6 63 C4.02 63 2.04 63 0 63 C0 42.21 0 21.42 0 0 Z " fill="#666666" transform="translate(207,5)"/>
<path d="M0 0 C1.98 0 3.96 0 6 0 C6 20.79 6 41.58 6 63 C4.02 63 2.04 63 0 63 C0 42.21 0 21.42 0 0 Z " fill="#767676" transform="translate(71,5)"/>
<path d="M0 0 C1.98 0 3.96 0 6 0 C6 20.79 6 41.58 6 63 C4.35 63 2.7 63 1 63 C0 62 0 62 -0.12025452 59.52598572 C-0.11803391 58.42678299 -0.11581329 57.32758026 -0.11352539 56.19506836 C-0.11344986 54.95385727 -0.11337433 53.71264618 -0.11329651 52.43382263 C-0.10818911 51.0691626 -0.1029731 49.70450298 -0.09765625 48.33984375 C-0.095792 46.95121817 -0.09436813 45.56259193 -0.09336853 44.17396545 C-0.08954387 40.51278885 -0.07971403 36.8516517 -0.06866455 33.19049072 C-0.05844932 29.45707737 -0.05387067 25.72365766 -0.04882812 21.99023438 C-0.03809171 14.66013823 -0.02101591 7.33007464 0 0 Z " fill="#818181" transform="translate(222,5)"/>
<path d="M0 0 C0 21.12 0 42.24 0 64 C-1.65 64 -3.3 64 -5 64 C-5 43.21 -5 22.42 -5 1 C-3 0 -3 0 0 0 Z " fill="#4E4E4E" transform="translate(260,4)"/>
<path d="M0 0 C1.65 0 3.3 0 5 0 C5 20.79 5 41.58 5 63 C3.35 63 1.7 63 0 63 C0 42.21 0 21.42 0 0 Z " fill="#222222" transform="translate(171,4)"/>
<path d="M0 0 C1.65 0 3.3 0 5 0 C5 20.79 5 41.58 5 63 C3.35 63 1.7 63 0 63 C0 42.21 0 21.42 0 0 Z " fill="#545454" transform="translate(134,5)"/>
<path d="M0 0 C1.65 0 3.3 0 5 0 C5 20.46 5 40.92 5 62 C3.35 62 1.7 62 0 62 C0 41.54 0 21.08 0 0 Z " fill="#727272" transform="translate(296,5)"/>
<path d="M0 0 C10.56 0 21.12 0 32 0 C32 0.33 32 0.66 32 1 C22.76 1 13.52 1 4 1 C4 23.11 4 45.22 4 68 C2.68 68 1.36 68 0 68 C0 45.56 0 23.12 0 0 Z " fill="#2D2E35" transform="translate(0,0)"/>
<path d="M0 0 C1.32 0 2.64 0 4 0 C4 21.12 4 42.24 4 64 C2.68 64 1.36 64 0 64 C0 42.88 0 21.76 0 0 Z " fill="#4B4B4B" transform="translate(183,4)"/>
<path d="M0 0 C0 21.12 0 42.24 0 64 C-1.65 64 -3.3 64 -5 64 C-5 43.21 -5 22.42 -5 1 C-3 0 -3 0 0 0 Z " fill="#6A6A6A" transform="translate(153,4)"/>
<path d="M0 0 C0 21.12 0 42.24 0 64 C-1.32 63.67 -2.64 63.34 -4 63 C-4 42.54 -4 22.08 -4 1 C-2 0 -2 0 0 0 Z " fill="#787878" transform="translate(193,4)"/>
<path d="M0 0 C1.32 0 2.64 0 4 0 C4 20.79 4 41.58 4 63 C2.68 63 1.36 63 0 63 C0 42.21 0 21.42 0 0 Z " fill="#313131" transform="translate(314,5)"/>
<path d="M0 0 C1.32 0 2.64 0 4 0 C4 20.79 4 41.58 4 63 C2.68 63 1.36 63 0 63 C0 42.21 0 21.42 0 0 Z " fill="#787878" transform="translate(277,5)"/>
<path d="M0 0 C1.32 0 2.64 0 4 0 C4 20.79 4 41.58 4 63 C2.68 63 1.36 63 0 63 C0 42.21 0 21.42 0 0 Z " fill="#292929" transform="translate(217,5)"/>
<path d="M0 0 C1.32 0 2.64 0 4 0 C4 20.79 4 41.58 4 63 C2.68 63 1.36 63 0 63 C0 42.21 0 21.42 0 0 Z " fill="#313131" transform="translate(197,4)"/>
<path d="M0 0 C1.32 0 2.64 0 4 0 C4 20.79 4 41.58 4 63 C2.68 63 1.36 63 0 63 C0 42.21 0 21.42 0 0 Z " fill="#393939" transform="translate(160,5)"/>
<path d="M0 0 C1.32 0 2.64 0 4 0 C4 20.79 4 41.58 4 63 C2.68 63 1.36 63 0 63 C0 42.21 0 21.42 0 0 Z " fill="#393939" transform="translate(35,5)"/>
<path d="M0 0 C1.32 0 2.64 0 4 0 C4 20.79 4 41.58 4 63 C2.68 63 1.36 63 0 63 C0 42.21 0 21.42 0 0 Z " fill="#313131" transform="translate(27,5)"/>
<path d="M0 0 C0.99 0 1.98 0 3 0 C3 21.12 3 42.24 3 64 C2.01 64 1.02 64 0 64 C0 42.88 0 21.76 0 0 Z " fill="#383838" transform="translate(242,4)"/>
<path d="M0 0 C0.99 0 1.98 0 3 0 C3 21.12 3 42.24 3 64 C2.01 64 1.02 64 0 64 C0 42.88 0 21.76 0 0 Z " fill="#434343" transform="translate(165,4)"/>
<path d="M0 0 C0.99 0 1.98 0 3 0 C3 21.12 3 42.24 3 64 C2.01 64 1.02 64 0 64 C0 42.88 0 21.76 0 0 Z " fill="#4D4D4D" transform="translate(142,4)"/>
<path d="M0 0 C0.99 0 1.98 0 3 0 C3 20.79 3 41.58 3 63 C2.01 63 1.02 63 0 63 C0 42.21 0 21.42 0 0 Z " fill="#8B8B8B" transform="translate(269,5)"/>
<path d="M0 0 C0.99 0 1.98 0 3 0 C3 20.79 3 41.58 3 63 C2.01 63 1.02 63 0 63 C0 42.21 0 21.42 0 0 Z " fill="#6B6B6B" transform="translate(234,5)"/>
<path d="M0 0 C0.99 0 1.98 0 3 0 C3 20.79 3 41.58 3 63 C2.01 63 1.02 63 0 63 C0 42.21 0 21.42 0 0 Z " fill="#363636" transform="translate(107,5)"/>
<path d="M0 0 C0.99 0 1.98 0 3 0 C3 20.79 3 41.58 3 63 C2.01 63 1.02 63 0 63 C0 42.21 0 21.42 0 0 Z " fill="#959595" transform="translate(90,5)"/>
<path d="M0 0 C0.99 0 1.98 0 3 0 C3 20.79 3 41.58 3 63 C2.01 63 1.02 63 0 63 C0 42.21 0 21.42 0 0 Z " fill="#373737" transform="translate(61,4)"/>
<path d="M0 0 C0.99 0 1.98 0 3 0 C3 20.79 3 41.58 3 63 C2.01 63 1.02 63 0 63 C0 42.21 0 21.42 0 0 Z " fill="#4C4C4C" transform="translate(55,5)"/>
<path d="M0 0 C0.99 0 1.98 0 3 0 C3 20.79 3 41.58 3 63 C2.01 63 1.02 63 0 63 C0 42.21 0 21.42 0 0 Z " fill="#959595" transform="translate(32,5)"/>
<path d="M0 0 C0.99 0 1.98 0 3 0 C3 20.79 3 41.58 3 63 C2.01 63 1.02 63 0 63 C0 42.21 0 21.42 0 0 Z " fill="#8B8B8B" transform="translate(23,5)"/>
<path d="M0 0 C0.99 0 1.98 0 3 0 C3 20.79 3 41.58 3 63 C2.01 63 1.02 63 0 63 C0 42.21 0 21.42 0 0 Z " fill="#171717" transform="translate(94,5)"/>
<path d="M0 0 C0.99 0 1.98 0 3 0 C3 20.79 3 41.58 3 63 C2.01 63 1.02 63 0 63 C0 42.21 0 21.42 0 0 Z " fill="#171717" transform="translate(86,5)"/>
<path d="M0 0 C0.99 0 1.98 0 3 0 C3 20.46 3 40.92 3 62 C2.01 62 1.02 62 0 62 C0 41.54 0 21.08 0 0 Z " fill="#9F9F9F" transform="translate(222,5)"/>
<path d="M0 0 C0.99 0 1.98 0 3 0 C3 20.46 3 40.92 3 62 C2.01 62 1.02 62 0 62 C0 41.54 0 21.08 0 0 Z " fill="#353535" transform="translate(71,5)"/>
<path d="M0 0 C0.99 0 1.98 0 3 0 C3 20.46 3 40.92 3 62 C2.01 62 1.02 62 0 62 C0 41.54 0 21.08 0 0 Z " fill="#606060" transform="translate(9,5)"/>
<path d="M0 0 C0.99 0 1.98 0 3 0 C3 20.46 3 40.92 3 62 C2.01 62 1.02 62 0 62 C0 41.54 0 21.08 0 0 Z " fill="#0A0A0A" transform="translate(249,5)"/>
<path d="M0 0 C0.99 0 1.98 0 3 0 C3 20.46 3 40.92 3 62 C2.01 62 1.02 62 0 62 C0 41.54 0 21.08 0 0 Z " fill="#0A0A0A" transform="translate(126,5)"/>
<path d="M0 0 C0.99 0 1.98 0 3 0 C3 20.46 3 40.92 3 62 C2.01 62 1.02 62 0 62 C0 41.54 0 21.08 0 0 Z " fill="#0A0A0A" transform="translate(49,5)"/>
</svg>
