<svg xmlns="http://www.w3.org/2000/svg" viewBox="0 0 1440 900" width="1440" height="900" fill="none" aria-hidden="true">
  <!-- Topographic contour lines — racing telemetry style -->
  <g stroke="#ff3b3b" stroke-linecap="round" fill="none">

    <!-- Upper contours -->
    <path d="M-20 45 C180 15, 380 95, 560 55 C740 15, 920 100, 1120 60 C1300 25, 1400 80, 1460 50" stroke-width="1.6" opacity="0.22"/>
    <path d="M-30 95 C140 60, 340 140, 520 100 C700 60, 880 150, 1080 105 C1260 65, 1380 130, 1460 100" stroke-width="1.8" opacity="0.2"/>
    <path d="M-10 155 C200 110, 400 200, 600 155 C800 110, 960 210, 1160 160 C1320 120, 1420 185, 1460 155" stroke-width="1.5" opacity="0.25"/>

    <!-- Upper-mid cluster -->
    <path d="M-40 210 C160 170, 360 260, 580 215 C800 170, 1000 270, 1200 220 C1340 185, 1430 245, 1460 215" stroke-width="1.7" opacity="0.18"/>
    <path d="M-20 265 C190 225, 420 310, 640 260 C860 210, 1040 320, 1240 270 C1370 235, 1440 290, 1460 265" stroke-width="2" opacity="0.22"/>
    <path d="M-50 320 C130 280, 370 370, 610 320 C850 270, 1060 380, 1280 325 C1390 290, 1440 350, 1460 320" stroke-width="1.5" opacity="0.2"/>

    <!-- Mid contours — denser -->
    <path d="M-30 380 C180 340, 430 430, 670 375 C910 320, 1080 440, 1300 380 C1400 350, 1450 405, 1460 380" stroke-width="1.8" opacity="0.24"/>
    <path d="M-10 430 C210 385, 460 480, 700 425 C940 370, 1120 490, 1320 430 C1410 400, 1450 455, 1460 430" stroke-width="1.6" opacity="0.2"/>
    <path d="M-40 485 C160 445, 400 535, 660 480 C920 425, 1100 545, 1340 485 C1420 455, 1455 510, 1460 485" stroke-width="2" opacity="0.22"/>
    <path d="M-20 540 C200 495, 440 590, 700 535 C960 480, 1140 600, 1360 540 C1430 510, 1455 560, 1460 540" stroke-width="1.5" opacity="0.18"/>

    <!-- Lower-mid cluster -->
    <path d="M-50 600 C140 560, 380 650, 640 595 C900 540, 1100 660, 1320 600 C1410 570, 1450 620, 1460 600" stroke-width="1.7" opacity="0.23"/>
    <path d="M-30 660 C180 615, 420 710, 680 655 C940 600, 1140 720, 1350 660 C1420 633, 1455 680, 1460 660" stroke-width="1.8" opacity="0.2"/>
    <path d="M-10 720 C220 675, 460 770, 720 715 C980 660, 1180 780, 1380 720 C1435 695, 1455 740, 1460 720" stroke-width="1.5" opacity="0.22"/>

    <!-- Lower contours -->
    <path d="M-40 780 C160 740, 400 830, 660 775 C920 720, 1120 840, 1340 780 C1420 755, 1455 800, 1460 780" stroke-width="2" opacity="0.2"/>
    <path d="M-20 835 C190 795, 440 885, 700 830 C960 775, 1160 895, 1370 835 C1430 812, 1455 855, 1460 835" stroke-width="1.6" opacity="0.18"/>
    <path d="M-50 890 C150 855, 380 935, 640 885 C900 835, 1100 945, 1320 890 C1410 865, 1450 905, 1460 890" stroke-width="1.8" opacity="0.22"/>

    <!-- Accent wider curves for organic feel -->
    <path d="M-60 130 C280 50, 600 230, 900 140 C1200 50, 1380 200, 1460 140" stroke-width="1.5" opacity="0.15"/>
    <path d="M-40 460 C300 380, 620 540, 940 450 C1260 360, 1400 510, 1460 450" stroke-width="1.5" opacity="0.15"/>
    <path d="M-30 750 C280 670, 600 820, 920 740 C1240 660, 1400 800, 1460 740" stroke-width="1.5" opacity="0.15"/>
  </g>
</svg>
