<?xml version="1.0" encoding="UTF-8"?>
<svg version="1.1" xmlns="http://www.w3.org/2000/svg" width="284" height="121">
<path d="M0 0 C1.34121193 0.0002826 2.68242402 0.00012272 4.02363586 -0.0004425 C7.63870388 -0.00072765 11.25373825 0.00512317 14.86879849 0.01213145 C18.65642196 0.01841225 22.44404632 0.01897251 26.23167419 0.02015686 C33.39249044 0.0232563 40.55329129 0.03145088 47.71410078 0.04150635 C55.87134683 0.05271071 64.02859365 0.0581888 72.18584549 0.06320179 C88.95520481 0.07363474 105.72454868 0.09120715 122.49389648 0.11352539 C120.6985754 3.99302255 118.39322594 6.38313833 115.30639648 9.36352539 C111.39327278 13.18460568 107.6492427 17.07549611 104.12670898 21.26196289 C103.58788086 21.87297852 103.04905273 22.48399414 102.49389648 23.11352539 C101.85381149 23.96409515 101.2137265 24.81466492 100.554245 25.69100952 C96.11135788 29.20791765 92.41171608 28.79861023 86.89550781 28.7253418 C85.82819427 28.73100662 84.76088074 28.73667145 83.66122437 28.74250793 C80.13243516 28.75601267 76.60467222 28.73505629 73.07592773 28.71508789 C70.61837562 28.72058842 68.1608281 28.72871333 65.70329285 28.73934937 C59.22811443 28.76226046 52.75327319 28.75800824 46.27807617 28.74554443 C35.93202827 28.72726014 25.5861799 28.73727911 15.24017906 28.77140427 C11.63407094 28.77748977 8.02839193 28.76426729 4.4223175 28.74942017 C2.19462983 28.75237017 -0.03305705 28.75602604 -2.26074219 28.76049805 C-3.25486618 28.75120773 -4.24899017 28.74191742 -5.27323914 28.73234558 C-20.01750468 28.81562823 -29.23502555 34.96459571 -39.50610352 45.11352539 C-40.9026743 46.74403343 -42.24351254 48.40899508 -43.57728577 50.09117126 C-60.879814 71.91174781 -60.879814 71.91174781 -74.39385986 73.84005737 C-85.09338396 74.82007565 -95.83895034 74.22078954 -106.50610352 73.11352539 C-106.50610352 69.11352539 -106.50610352 69.11352539 -104.49438477 66.96508789 C-103.61137695 66.23032227 -102.72836914 65.49555664 -101.81860352 64.73852539 C-98.79207605 62.1486398 -95.97050346 59.68550387 -93.50610352 56.55102539 C-92.84610352 55.74665039 -92.18610352 54.94227539 -91.50610352 54.11352539 C-90.84610352 54.11352539 -90.18610352 54.11352539 -89.50610352 54.11352539 C-89.50610352 53.45352539 -89.50610352 52.79352539 -89.50610352 52.11352539 C-88.84610352 52.11352539 -88.18610352 52.11352539 -87.50610352 52.11352539 C-87.50610352 51.45352539 -87.50610352 50.79352539 -87.50610352 50.11352539 C-86.84610352 50.11352539 -86.18610352 50.11352539 -85.50610352 50.11352539 C-85.50610352 49.45352539 -85.50610352 48.79352539 -85.50610352 48.11352539 C-84.22094727 46.88696289 -84.22094727 46.88696289 -82.44360352 45.48852539 C-79.8354391 43.32628968 -77.56488466 41.13981858 -75.38110352 38.55102539 C-59.41526174 19.81008245 -41.55425742 3.08776256 -16.25102425 0.32991219 C-10.84141347 -0.09653668 -5.42314985 -0.0157323 0 0 Z " fill="#DF0601" transform="translate(108.506103515625,26.886474609375)"/>
<path d="M0 0 C1.50889801 -0.00043808 1.50889801 -0.00043808 3.04827881 -0.00088501 C6.34339293 0.0004983 9.63827543 0.01601224 12.93334961 0.03173828 C15.22977068 0.03547196 17.52619334 0.03831726 19.82261658 0.04031372 C25.8444769 0.04792218 31.86623958 0.06754664 37.88806152 0.08972168 C44.041816 0.11024029 50.19558636 0.11932827 56.34936523 0.12939453 C68.40735066 0.15079524 80.46526387 0.18489737 92.52319336 0.22705078 C87.62272705 10.31585389 78.66369662 20.99781543 68.52319336 26.22705078 C57.47967247 29.97723661 44.62543981 28.54325732 33.17529297 27.96807861 C28.1069085 27.73537166 23.0343033 27.6436508 17.96179008 27.5464077 C14.02021402 27.47058293 10.08585028 27.37037661 6.1477356 27.18569946 C-3.02443078 26.81476557 -8.73390586 27.29318941 -15.97290039 33.29736328 C-16.93389648 34.31443359 -16.93389648 34.31443359 -17.91430664 35.35205078 C-18.57301758 36.03525391 -19.23172852 36.71845703 -19.91040039 37.42236328 C-21.54297798 39.15226744 -21.54297798 39.15226744 -22.47680664 41.22705078 C-35.01680664 41.22705078 -47.55680664 41.22705078 -60.47680664 41.22705078 C-58.85819897 37.98983543 -57.93696723 36.43181263 -55.53100586 33.99072266 C-54.63899979 33.07957703 -54.63899979 33.07957703 -53.72897339 32.15002441 C-52.76497116 31.18268372 -52.76497116 31.18268372 -51.78149414 30.19580078 C-51.11522003 29.52286987 -50.44894592 28.84993896 -49.76248169 28.15661621 C-48.35122087 26.7352392 -46.93724064 25.31655782 -45.52075195 23.90039062 C-43.36997678 21.74525774 -41.23568747 19.57467701 -39.10180664 17.40283203 C-37.72518689 16.02034068 -36.34761247 14.63879916 -34.96899414 13.25830078 C-34.33847137 12.61340698 -33.70794861 11.96851318 -33.05831909 11.30407715 C-23.55869065 1.89971473 -13.03121674 -0.10067125 0 0 Z " fill="#DA0702" transform="translate(108.476806640625,57.77294921875)"/>
<path d="M0 0 C-1.59347441 3.89594292 -4.10646779 6.34134174 -7.07299805 9.28417969 C-7.84660927 10.05581955 -7.84660927 10.05581955 -8.635849 10.8430481 C-10.33992039 12.54063616 -12.05085787 14.23113214 -13.76171875 15.921875 C-14.95329406 17.10717405 -16.14435178 18.29299362 -17.33491516 19.47930908 C-20.47294564 22.6040379 -23.61648368 25.72316159 -26.76165771 28.84069824 C-31.77859766 33.81454908 -36.78897158 38.79498888 -41.79590797 43.77890778 C-43.53654439 45.50941977 -45.2806103 47.23641726 -47.02507019 48.96307373 C-53.63340125 55.52129215 -53.63340125 55.52129215 -59.90161133 62.40332031 C-60.43529831 63.01615875 -60.96898529 63.62899719 -61.5188446 64.26040649 C-62.50487834 65.41848747 -63.466095 66.59817209 -64.4009552 67.79794312 C-66.48606984 70.25725133 -67.98257351 71.76408204 -71.17816162 72.50506592 C-73.80594676 72.69391036 -76.35925155 72.67557643 -78.9921875 72.5859375 C-79.93812775 72.57744781 -80.88406799 72.56895813 -81.8586731 72.56021118 C-84.86529835 72.52675626 -87.86919238 72.45149222 -90.875 72.375 C-92.91923196 72.34489015 -94.96350618 72.31751614 -97.0078125 72.29296875 C-102.00625273 72.22699077 -107.00266413 72.12352396 -112 72 C-110.56656599 68.72238172 -108.80870848 66.56943318 -106.2722168 64.06103516 C-105.50769699 63.2998941 -104.74317719 62.53875305 -103.95549011 61.75454712 C-103.12842056 60.94093719 -102.30135101 60.12732727 -101.44921875 59.2890625 C-100.59826126 58.44330658 -99.74730377 57.59755066 -98.87055969 56.72616577 C-96.14757014 54.0209933 -93.41800821 51.32258157 -90.6875 48.625 C-87.96854898 45.93373197 -85.25108706 43.24100337 -82.53657532 40.54525757 C-80.84761577 38.86847976 -79.15598985 37.19438222 -77.46134949 35.52334595 C-74.17598014 32.26569898 -70.96132533 29.05164927 -68.06567383 25.43896484 C-67.04316528 24.23167725 -67.04316528 24.23167725 -66 23 C-65.34 23 -64.68 23 -64 23 C-64 22.34 -64 21.68 -64 21 C-63.34 21 -62.68 21 -62 21 C-61.71954834 20.42475586 -61.43909668 19.84951172 -61.15014648 19.25683594 C-48.18705308 -6.17955452 -24.79195029 -1.81870179 0 0 Z " fill="#E00601" transform="translate(281,27)"/>
<path d="M0 0 C1.34121193 0.0002826 2.68242402 0.00012272 4.02363586 -0.0004425 C7.63870388 -0.00072765 11.25373825 0.00512317 14.86879849 0.01213145 C18.65642196 0.01841225 22.44404632 0.01897251 26.23167419 0.02015686 C33.39249044 0.0232563 40.55329129 0.03145088 47.71410078 0.04150635 C55.87134683 0.05271071 64.02859365 0.0581888 72.18584549 0.06320179 C88.95520481 0.07363474 105.72454868 0.09120715 122.49389648 0.11352539 C120.6985754 3.99302255 118.39322594 6.38313833 115.30639648 9.36352539 C111.39327278 13.18460568 107.6492427 17.07549611 104.12670898 21.26196289 C103.58788086 21.87297852 103.04905273 22.48399414 102.49389648 23.11352539 C101.85381149 23.96376785 101.2137265 24.81401031 100.554245 25.6900177 C96.11301261 29.20705532 92.41123557 28.80584416 86.89550781 28.74121094 C85.82819427 28.74848206 84.76088074 28.75575317 83.66122437 28.76324463 C80.13245552 28.78184718 76.60469727 28.76575981 73.07592773 28.75024414 C70.61837357 28.75828486 68.16082637 28.7688033 65.70329285 28.7816925 C59.22813014 28.81027493 52.75328716 28.81081275 46.27807617 28.80383301 C35.93204771 28.7965193 25.58612371 28.8279638 15.24017906 28.86628151 C11.63414965 28.87510173 8.02834628 28.86984032 4.4223175 28.86271667 C2.19463033 28.86610371 -0.03305634 28.86985373 -2.26074219 28.87402344 C-3.25486618 28.8683284 -4.24899017 28.86263336 -5.27323914 28.85676575 C-11.56960116 28.88312757 -17.38261815 29.64743302 -23.50610352 31.11352539 C-23.50610352 30.12352539 -23.50610352 29.13352539 -23.50610352 28.11352539 C-22.37172852 27.96915039 -21.23735352 27.82477539 -20.06860352 27.67602539 C-16.69833151 27.50181061 -16.69833151 27.50181061 -15.50610352 26.11352539 C-14.05128856 26.01790929 -12.59184866 25.99164188 -11.13389587 25.99327087 C-10.19013596 25.99189621 -9.24637604 25.99052155 -8.27401733 25.98910522 C-6.70848618 25.99449814 -6.70848618 25.99449814 -5.11132812 26 C-4.0187822 25.99985397 -2.92623627 25.99970795 -1.80058289 25.9995575 C1.83014881 26.00025717 5.46082994 26.0080521 9.09155273 26.01586914 C11.60119092 26.01773313 14.11082946 26.01915712 16.62046814 26.02015686 C22.56324242 26.02359191 28.50600032 26.03148266 34.44876617 26.04150635 C41.87591573 26.05376286 49.30306753 26.05914747 56.73022461 26.06469727 C69.98479122 26.07543728 83.2393427 26.09232457 96.49389648 26.11352539 C96.49389648 25.45352539 96.49389648 24.79352539 96.49389648 24.11352539 C97.29827148 23.65977539 98.10264648 23.20602539 98.93139648 22.73852539 C101.66140832 21.42013605 101.66140832 21.42013605 101.99389648 19.11352539 C102.15889648 18.45352539 102.32389648 17.79352539 102.49389648 17.11352539 C103.31889648 16.63915039 104.14389648 16.16477539 104.99389648 15.67602539 C107.74851561 14.33584704 107.74851561 14.33584704 108.30639648 11.42602539 C108.36827148 10.66290039 108.43014648 9.89977539 108.49389648 9.11352539 C109.48389648 8.78352539 110.47389648 8.45352539 111.49389648 8.11352539 C112.15389648 7.12352539 112.81389648 6.13352539 113.49389648 5.11352539 C114.81983753 4.75190511 116.15328106 4.416245 117.49389648 4.11352539 C117.82389648 3.45352539 118.15389648 2.79352539 118.49389648 2.11352539 C101.1873487 2.22066401 83.8808478 2.33340717 66.57438087 2.45286465 C58.53910412 2.50819657 50.50382293 2.56167851 42.46850586 2.61083984 C35.46679502 2.65368207 28.46511687 2.69996015 21.46345651 2.75040394 C17.75445288 2.77700458 14.04545574 2.80185764 10.33641434 2.82259941 C6.20087099 2.84579054 2.06541964 2.87665081 -2.07006836 2.90820312 C-3.92475487 2.91683632 -3.92475487 2.91683632 -5.81690979 2.92564392 C-7.49965752 2.94032715 -7.49965752 2.94032715 -9.21640015 2.95530701 C-10.1953443 2.96175956 -11.17428844 2.96821211 -12.18289757 2.97486019 C-14.53118 2.96226019 -14.53118 2.96226019 -16.50610352 4.11352539 C-18.54665357 4.18418156 -20.58944609 4.19774515 -22.63110352 4.17602539 C-23.72680664 4.16700195 -24.82250977 4.15797852 -25.95141602 4.14868164 C-26.79446289 4.13708008 -27.63750977 4.12547852 -28.50610352 4.11352539 C-28.50610352 4.77352539 -28.50610352 5.43352539 -28.50610352 6.11352539 C-31.80610352 6.44352539 -35.10610352 6.77352539 -38.50610352 7.11352539 C-34.8030312 4.33622115 -33.12833445 3.513847 -28.81860352 2.48852539 C-27.84536133 2.24875977 -26.87211914 2.00899414 -25.86938477 1.76196289 C-17.23004657 0.09630651 -8.77059992 -0.0254431 0 0 Z " fill="#8C1112" transform="translate(108.506103515625,26.886474609375)"/>
<path d="M0 0 C0.99 0.495 0.99 0.495 2 1 C1.4267247 1.57105469 0.8534494 2.14210937 0.26280212 2.73046875 C-5.16782464 8.14096877 -10.59597394 13.55393706 -16.02143192 18.96961975 C-18.81007064 21.75306379 -21.59962164 24.53557996 -24.39135742 27.31591797 C-27.09091003 30.00451934 -29.78793547 32.69563298 -32.48330498 35.38842773 C-33.50653897 36.40982935 -34.53064523 37.43035799 -35.55568123 38.44995117 C-40.09494819 42.96609486 -44.61674787 47.47256614 -48.81030273 52.31640625 C-49.35717239 52.94179291 -49.90404205 53.56717957 -50.46748352 54.21151733 C-51.47411144 55.38627572 -52.45516605 56.58353406 -53.40666199 57.80337524 C-55.48893182 60.26125117 -56.98563489 61.7647919 -60.17816162 62.50506592 C-62.80594676 62.69391036 -65.35925155 62.67557643 -67.9921875 62.5859375 C-68.93812775 62.57744781 -69.88406799 62.56895813 -70.8586731 62.56021118 C-73.86529835 62.52675626 -76.86919238 62.45149222 -79.875 62.375 C-81.91923196 62.34489015 -83.96350618 62.31751614 -86.0078125 62.29296875 C-91.00625273 62.22699077 -96.00266413 62.12352396 -101 62 C-99.30145963 58.37916872 -97.28895218 56.05744646 -94.4296875 53.234375 C-93.53378906 52.34492187 -92.63789063 51.45546875 -91.71484375 50.5390625 C-90.77769531 49.61867187 -89.84054688 48.69828125 -88.875 47.75 C-87.92011363 46.80515144 -86.96568141 45.85984367 -86.01171875 44.9140625 C-83.67890913 42.60481662 -81.34155914 40.30036797 -79 38 C-79 41 -79 41 -80.54467773 42.86938477 C-81.25052002 43.55315186 -81.9563623 44.23691895 -82.68359375 44.94140625 C-83.44607422 45.68970703 -84.20855469 46.43800781 -84.99414062 47.20898438 C-85.80044922 47.98564453 -86.60675781 48.76230469 -87.4375 49.5625 C-89.02160267 51.10334203 -90.60373603 52.64621208 -92.18359375 54.19140625 C-93.24404907 55.21536499 -93.24404907 55.21536499 -94.32592773 56.26000977 C-96.0784165 57.90862027 -96.0784165 57.90862027 -97 60 C-91.66085189 59.95584964 -86.32288669 59.88602014 -80.984375 59.79248047 C-79.16871561 59.7642729 -77.35293348 59.74305726 -75.53710938 59.72900391 C-72.92514211 59.70757091 -70.31465026 59.66092115 -67.703125 59.609375 C-66.89256653 59.60814636 -66.08200806 59.60691772 -65.24688721 59.60565186 C-61.63096852 59.51189482 -59.48921507 59.3939056 -56.62402344 57.08691406 C-55.82013184 56.0538916 -55.82013184 56.0538916 -55 55 C-54.113125 54.34 -53.22625 53.68 -52.3125 53 C-49.85252287 51.26384341 -49.85252287 51.26384341 -49.5 48.9375 C-49.335 48.298125 -49.17 47.65875 -49 47 C-48.21625 46.54625 -47.4325 46.0925 -46.625 45.625 C-43.74308098 44.16293877 -43.74308098 44.16293877 -42.5 40.9375 C-40.68073036 37.37476362 -39.57888967 37.37649603 -36 36 C-35.67 35.175 -35.34 34.35 -35 33.5 C-34.67 32.675 -34.34 31.85 -34 31 C-32.33927151 30.31867549 -30.672233 29.65257873 -29 29 C-27.97695052 27.34738161 -26.97383946 25.68208635 -26 24 C-25.01 24 -24.02 24 -23 24 C-23 22.68 -23 21.36 -23 20 C-22.34 20 -21.68 20 -21 20 C-21 19.34 -21 18.68 -21 18 C-20.01 18 -19.02 18 -18 18 C-18 17.34 -18 16.68 -18 16 C-17.2575 15.5875 -16.515 15.175 -15.75 14.75 C-12.76268669 13.10923946 -12.76268669 13.10923946 -10.875 9.8125 C-10.25625 8.884375 -9.6375 7.95625 -9 7 C-8.01 7 -7.02 7 -6 7 C-6.99 4.525 -6.99 4.525 -8 2 C-7.34 1.67 -6.68 1.34 -6 1 C-6 1.66 -6 2.32 -6 3 C-5.05125 2.484375 -4.1025 1.96875 -3.125 1.4375 C-2.09375 0.963125 -1.0625 0.48875 0 0 Z " fill="#931312" transform="translate(270,37)"/>
<path d="M0 0 C1.00549393 -0.00014603 2.01098785 -0.00029205 3.04695129 -0.0004425 C6.35830876 0.00025212 9.66960943 0.00802345 12.98095703 0.01586914 C15.28166676 0.01773492 17.58237689 0.01915807 19.88308716 0.02015686 C25.92961734 0.02396945 31.97612338 0.033789 38.02264404 0.04486084 C44.19624505 0.05510201 50.36984997 0.05966028 56.54345703 0.06469727 C68.65023845 0.07541239 80.75700198 0.09247371 92.86376953 0.11352539 C91.51649692 2.90922703 90.2667072 4.95320342 88.04345703 7.12915039 C87.24101562 7.92192383 87.24101562 7.92192383 86.42236328 8.73071289 C85.86677734 9.26954102 85.31119141 9.80836914 84.73876953 10.36352539 C84.17544922 10.91782227 83.61212891 11.47211914 83.03173828 12.04321289 C81.64690925 13.40457024 80.25593749 14.75967398 78.86376953 16.11352539 C78.86376953 12.55123088 79.62485962 11.7024286 81.73876953 8.92602539 C82.27244141 8.2105957 82.80611328 7.49516602 83.35595703 6.75805664 C83.85353516 6.21536133 84.35111328 5.67266602 84.86376953 5.11352539 C85.52376953 5.11352539 86.18376953 5.11352539 86.86376953 5.11352539 C86.86376953 4.12352539 86.86376953 3.13352539 86.86376953 2.11352539 C73.70261757 2.15160231 60.54174964 2.2109938 47.38082123 2.29742813 C41.2693323 2.33689917 35.15798738 2.3690897 29.04638672 2.38452148 C23.14585109 2.3996902 17.2457114 2.43414043 11.34535217 2.48183441 C9.0968012 2.49664583 6.84819371 2.50456626 4.59959412 2.50540924 C1.44438709 2.50778127 -1.7097279 2.53488147 -4.86474609 2.56762695 C-5.78975922 2.56259659 -6.71477234 2.55756622 -7.66781616 2.55238342 C-13.03262623 2.63825096 -16.79484246 3.47500652 -21.45436859 6.18447495 C-23.61050992 7.37551452 -25.70519939 7.80964651 -28.13623047 8.11352539 C-21.24244199 -0.21646902 -9.96599473 -0.03805463 0 0 Z " fill="#BF120C" transform="translate(108.13623046875,57.886474609375)"/>
<path d="M0 0 C0.99 0.495 0.99 0.495 2 1 C-18.92303957 28.61323953 -18.92303957 28.61323953 -33.99267578 30.82691956 C-44.65172841 31.80755381 -55.37960157 31.16004957 -66 30 C-66 26 -66 26 -63.98828125 23.8515625 C-63.10527344 23.11679688 -62.22226562 22.38203125 -61.3125 21.625 C-58.28597254 19.03511441 -55.46439995 16.57197848 -53 13.4375 C-52.34 12.633125 -51.68 11.82875 -51 11 C-50.34 11 -49.68 11 -49 11 C-49 10.34 -49 9.68 -49 9 C-48.34 9 -47.68 9 -47 9 C-47 8.34 -47 7.68 -47 7 C-46.34 7 -45.68 7 -45 7 C-45.5590888 10.24271506 -46.4132178 11.93057424 -49 14 C-49.66 14 -50.32 14 -51 14 C-51.103125 14.639375 -51.20625 15.27875 -51.3125 15.9375 C-51.539375 16.618125 -51.76625 17.29875 -52 18 C-52.99 18.33 -53.98 18.66 -55 19 C-55 19.66 -55 20.32 -55 21 C-56.66279327 22.0064275 -58.32983484 23.00585407 -60 24 C-60.66 24.99 -61.32 25.98 -62 27 C-57.0519151 26.88189912 -52.10403724 26.7576616 -47.15625 26.62768555 C-45.47237358 26.58432183 -43.78845277 26.5426478 -42.10449219 26.50268555 C-39.68671276 26.44501766 -37.26915705 26.3813135 -34.8515625 26.31640625 C-34.0963028 26.29969376 -33.34104309 26.28298126 -32.56289673 26.26576233 C-28.65260201 26.22444893 -28.65260201 26.22444893 -25 25 C-24.34786708 22.97536745 -24.34786708 22.97536745 -24 21 C-22.68 21 -21.36 21 -20 21 C-20 19.68 -20 18.36 -20 17 C-19.236875 16.7525 -18.47375 16.505 -17.6875 16.25 C-14.73819971 14.87823242 -13.82568981 13.6081283 -12 11 C-11.34 11 -10.68 11 -10 11 C-9.9175 10.38125 -9.835 9.7625 -9.75 9.125 C-9 7 -9 7 -7.25 6.0625 C-6.5075 5.711875 -5.765 5.36125 -5 5 C-3.29503463 3.37253306 -1.62102968 1.71108689 0 0 Z " fill="#911115" transform="translate(68,70)"/>
<path d="M0 0 C0 3.10551666 -0.5393715 4.35261084 -2 7 C-2.66 7 -3.32 7 -4 7 C-4 7.66 -4 8.32 -4 9 C-6.30935087 11.62788203 -7.63983107 12.87994369 -11 14 C-11.33 14.99 -11.66 15.98 -12 17 C-1.44 16.67 9.12 16.34 20 16 C20.33 15.01 20.66 14.02 21 13 C21.66 13 22.32 13 23 13 C23 12.34 23 11.68 23 11 C23.99 10.67 24.98 10.34 26 10 C26.2475 9.34 26.495 8.68 26.75 8 C27.36875 7.01 27.36875 7.01 28 6 C31.625 5.25 31.625 5.25 35 5 C34.34 5.495 33.68 5.99 33 6.5 C26.13403575 12.01811095 26.13403575 12.01811095 21 19 C8.46 19 -4.08 19 -17 19 C-15.27370154 15.54740307 -14.16774527 13.92761399 -11.5234375 11.328125 C-10.51796875 10.33232422 -10.51796875 10.33232422 -9.4921875 9.31640625 C-8.79351562 8.63449219 -8.09484375 7.95257813 -7.375 7.25 C-6.66859375 6.55261719 -5.9621875 5.85523437 -5.234375 5.13671875 C-3.49401297 3.41987512 -1.74915019 1.70788168 0 0 Z " fill="#731513" transform="translate(65,80)"/>
<path d="M0 0 C0.66 0.33 1.32 0.66 2 1 C-3.56609293 6.6123625 -9.13751467 12.21935641 -14.71588707 17.81951141 C-17.30577097 20.41984802 -19.89375543 23.02201871 -22.47753906 25.62841797 C-24.96947726 28.14203164 -27.46622018 30.65077759 -29.96641922 33.15617371 C-30.92108788 34.11454767 -31.87398982 35.07468478 -32.8251152 36.03657532 C-34.15399745 37.37990157 -35.48967707 38.71649338 -36.82568359 40.05273438 C-37.58513275 40.81662476 -38.34458191 41.58051514 -39.12704468 42.36755371 C-41 44 -41 44 -43 44 C-42.875 41.6875 -42.875 41.6875 -42 39 C-40.00854609 37.98308736 -38.00812926 36.98357352 -36 36 C-35.31246699 34.34183216 -34.64438717 32.67540664 -34 31 C-32.33927151 30.31867549 -30.672233 29.65257873 -29 29 C-27.97695052 27.34738161 -26.97383946 25.68208635 -26 24 C-25.01 24 -24.02 24 -23 24 C-23 22.68 -23 21.36 -23 20 C-22.34 20 -21.68 20 -21 20 C-21 19.34 -21 18.68 -21 18 C-20.01 18 -19.02 18 -18 18 C-18 17.34 -18 16.68 -18 16 C-17.2575 15.5875 -16.515 15.175 -15.75 14.75 C-12.76268669 13.10923946 -12.76268669 13.10923946 -10.875 9.8125 C-9.946875 8.4203125 -9.946875 8.4203125 -9 7 C-8.01 7 -7.02 7 -6 7 C-6.66 5.35 -7.32 3.7 -8 2 C-7.34 1.67 -6.68 1.34 -6 1 C-6 1.66 -6 2.32 -6 3 C-5.05125 2.484375 -4.1025 1.96875 -3.125 1.4375 C-2.09375 0.963125 -1.0625 0.48875 0 0 Z " fill="#B50F0C" transform="translate(270,37)"/>
<path d="M0 0 C-1.36983503 3.16115776 -1.9890638 3.9927092 -5 6 C-5 5.01 -5 4.02 -5 3 C-4.34 3 -3.68 3 -3 3 C-3 2.34 -3 1.68 -3 1 C-8.49971814 1.06879874 -13.99867027 1.15672648 -19.49780273 1.26245117 C-21.36881014 1.29572002 -23.23991838 1.32374585 -25.11108398 1.34643555 C-27.79975383 1.37994588 -30.48749798 1.43225865 -33.17578125 1.48828125 C-34.43217155 1.49786613 -34.43217155 1.49786613 -35.71394348 1.50764465 C-39.98297328 1.47533219 -39.98297328 1.47533219 -43.65519714 3.33952332 C-45.19505746 5.10969765 -45.19505746 5.10969765 -46.4375 8 C-48.47791685 11.91760034 -50.62354425 13.25883152 -54.4375 15.3125 C-56.77516689 16.85193917 -57.97762581 18.04512822 -59.6875 20.1875 C-60.450625 21.115625 -61.21375 22.04375 -62 23 C-62.66 23 -63.32 23 -64 23 C-64 22.34 -64 21.68 -64 21 C-63.34 21 -62.68 21 -62 21 C-61.57932251 20.13713379 -61.57932251 20.13713379 -61.15014648 19.25683594 C-48.18705308 -6.17955452 -24.79195029 -1.81870179 0 0 Z " fill="#681114" transform="translate(281,27)"/>
<path d="M0 0 C33.99 0 67.98 0 103 0 C101 4 101 4 99 5 C99 3.68 99 2.36 99 1 C66.33 1 33.66 1 0 1 C0 0.67 0 0.34 0 0 Z " fill="#850E08" transform="translate(98,58)"/>
<path d="M0 0 C0.66 0 1.32 0 2 0 C1.4409112 3.24271506 0.5867822 4.93057424 -2 7 C-2.66 7 -3.32 7 -4 7 C-4.1546875 7.9590625 -4.1546875 7.9590625 -4.3125 8.9375 C-4.539375 9.618125 -4.76625 10.29875 -5 11 C-5.99 11.33 -6.98 11.66 -8 12 C-8 12.66 -8 13.32 -8 14 C-9.66279327 15.0064275 -11.32983484 16.00585407 -13 17 C-13.66 17.99 -14.32 18.98 -15 20 C-3.45 20 8.1 20 20 20 C20 20.33 20 20.66 20 21 C7.79 21 -4.42 21 -17 21 C-15.03590592 16.08976479 -13.65030429 14.3436707 -9.9375 10.8125 C-6.53095187 7.73255163 -6.53095187 7.73255163 -4 4 C-3.34 4 -2.68 4 -2 4 C-2 3.34 -2 2.68 -2 2 C-1.34 2 -0.68 2 0 2 C0 1.34 0 0.68 0 0 Z " fill="#B91110" transform="translate(21,77)"/>
<path d="M0 0 C-0.825 0.495 -1.65 0.99 -2.5 1.5 C-4.61196334 2.83894141 -5.96367035 3.95078233 -7.45898438 5.9765625 C-10.55359042 10.04354775 -12.80163012 11.80156282 -17.92773438 12.65039062 C-22.62555768 12.88667245 -27.30415217 12.69898456 -32 12.5 C-33.64965313 12.45981988 -35.29940043 12.42332705 -36.94921875 12.390625 C-40.96849196 12.30298051 -44.9831995 12.16524812 -49 12 C-48.67 11.01 -48.34 10.02 -48 9 C-47.67 9.66 -47.34 10.32 -47 11 C-36.44 10.67 -25.88 10.34 -15 10 C-14.67 9.01 -14.34 8.02 -14 7 C-13.34 7 -12.68 7 -12 7 C-12 6.34 -12 5.68 -12 5 C-11.01 4.67 -10.02 4.34 -9 4 C-8.67 3.34 -8.34 2.68 -8 2 C-6.14210462 -1.71579076 -3.44525918 -1.06921837 0 0 Z " fill="#B81010" transform="translate(100,86)"/>
<path d="M0 0 C0.66 0.33 1.32 0.66 2 1 C1.67 1.66 1.34 2.32 1 3 C13.21 3 25.42 3 38 3 C38 2.34 38 1.68 38 1 C39.32 0.67 40.64 0.34 42 0 C41.06518555 1.96191406 41.06518555 1.96191406 39 4 C36.00284094 4.65240588 33.01521033 4.60500323 29.95703125 4.609375 C29.0734343 4.62591125 28.18983734 4.64244751 27.27946472 4.65948486 C24.45707322 4.70807285 21.63522088 4.72935941 18.8125 4.75 C16.89906126 4.7781507 14.98564775 4.80807686 13.07226562 4.83984375 C8.38155479 4.91383455 3.69114517 4.96334302 -1 5 C-1 1 -1 1 0 0 Z " fill="#771414" transform="translate(3,95)"/>
<path d="M0 0 C0.66 0.33 1.32 0.66 2 1 C-3.61 6.61 -9.22 12.22 -15 18 C-15 15 -15 15 -13.125 13.0625 C-12.42375 12.381875 -11.7225 11.70125 -11 11 C-9.76487921 8.86690808 -9.76487921 8.86690808 -9 7 C-8.01 7 -7.02 7 -6 7 C-6.66 5.35 -7.32 3.7 -8 2 C-7.34 1.67 -6.68 1.34 -6 1 C-6 1.66 -6 2.32 -6 3 C-4.576875 2.2265625 -4.576875 2.2265625 -3.125 1.4375 C-2.09375 0.963125 -1.0625 0.48875 0 0 Z " fill="#A2100D" transform="translate(270,37)"/>
<path d="M0 0 C0 3 0 3 -2.1875 5.5 C-5 8 -5 8 -7.5 9.4375 C-9.85798908 10.91124317 -10.98912594 12.05581643 -12.6875 14.1875 C-13.8321875 15.5796875 -13.8321875 15.5796875 -15 17 C-15.66 17 -16.32 17 -17 17 C-17 16.34 -17 15.68 -17 15 C-16.34 15 -15.68 15 -15 15 C-14.77183594 14.44699219 -14.54367188 13.89398438 -14.30859375 13.32421875 C-12.62457111 10.33319346 -10.49456758 8.23028231 -8.0625 5.8125 C-7.18722656 4.93207031 -6.31195313 4.05164062 -5.41015625 3.14453125 C-3 1 -3 1 0 0 Z " fill="#981011" transform="translate(234,33)"/>
<path d="M0 0 C0.66 0.33 1.32 0.66 2 1 C1.34 2.98 0.68 4.96 0 7 C-0.66 7 -1.32 7 -2 7 C-2 7.66 -2 8.32 -2 9 C-3.6796875 10.32421875 -3.6796875 10.32421875 -5.875 11.6875 C-6.95394531 12.37392578 -6.95394531 12.37392578 -8.0546875 13.07421875 C-9.01761719 13.53248047 -9.01761719 13.53248047 -10 14 C-10.66 13.67 -11.32 13.34 -12 13 C-11.55269531 12.56429687 -11.10539063 12.12859375 -10.64453125 11.6796875 C-6.85478464 7.94650427 -3.33540417 4.143987 0 0 Z " fill="#A20E0E" transform="translate(215,50)"/>
<path d="M0 0 C-0.33 1.65 -0.66 3.3 -1 5 C-2.65 4.67 -4.3 4.34 -6 4 C-6.33 5.98 -6.66 7.96 -7 10 C-7.99 10 -8.98 10 -10 10 C-12.68767578 12.43750025 -12.68767578 12.43750025 -15 15 C-15.66 14.67 -16.32 14.34 -17 14 C-15.29361742 12.29361742 -13.58701361 10.58746914 -11.87890625 8.8828125 C-10.326445 7.32712368 -8.78651736 5.7589382 -7.25 4.1875 C-2.94285714 0 -2.94285714 0 0 0 Z " fill="#D60B09" transform="translate(70,34)"/>
<path d="M0 0 C0.66 0.33 1.32 0.66 2 1 C0.09332956 3.15549693 -1.82431955 5.29909904 -3.75 7.4375 C-4.55824219 8.35499023 -4.55824219 8.35499023 -5.3828125 9.29101562 C-5.91132813 9.87431641 -6.43984375 10.45761719 -6.984375 11.05859375 C-7.46616211 11.59798584 -7.94794922 12.13737793 -8.44433594 12.69311523 C-10.25695055 14.21585943 -11.6906441 14.59695204 -14 15 C-13 12 -13 12 -10.0625 10.125 C-6.66963993 7.77077056 -6.41763924 6.68586204 -5 3 C-2.5 1.125 -2.5 1.125 0 0 Z " fill="#8B1112" transform="translate(226,81)"/>
<path d="M0 0 C1.32 0 2.64 0 4 0 C2.44396229 3.81936528 0.04395069 6.26044438 -3 9 C-3.66 9 -4.32 9 -5 9 C-5 7.35 -5 5.7 -5 4 C-4.01 3.67 -3.02 3.34 -2 3 C-1.34 2.01 -0.68 1.02 0 0 Z " fill="#C20C0B" transform="translate(222,32)"/>
<path d="M0 0 C0.33 1.32 0.66 2.64 1 4 C0.071875 4.3403125 0.071875 4.3403125 -0.875 4.6875 C-3.61410209 6.37929835 -4.05024472 7.99244161 -5 11 C-6.65 11 -8.3 11 -10 11 C-6.79239749 7.19364503 -3.59253891 3.45436433 0 0 Z " fill="#AF100F" transform="translate(202,64)"/>
<path d="M0 0 C0 3.10551666 -0.5393715 4.35261084 -2 7 C-2.66 7 -3.32 7 -4 7 C-4 7.66 -4 8.32 -4 9 C-5.29233607 10.37310707 -6.62437146 11.71034824 -8 13 C-8.66 12.67 -9.32 12.34 -10 12 C-7.49653351 7.14032976 -3.91447559 3.72143296 0 0 Z " fill="#99110C" transform="translate(65,80)"/>
<path d="M0 0 C-0.825 0.515625 -1.65 1.03125 -2.5 1.5625 C-6.6605086 4.31958345 -10.30379523 7.66028198 -14 11 C-14 6.90827076 -12.30467222 5.54433363 -9.65625 2.58984375 C-6.4330898 -0.50408597 -4.23693868 -1.41231289 0 0 Z " fill="#961012" transform="translate(85,59)"/>
<path d="M0 0 C-0.61488281 0.26554687 -1.22976562 0.53109375 -1.86328125 0.8046875 C-2.67152344 1.15789063 -3.47976562 1.51109375 -4.3125 1.875 C-5.11300781 2.22304688 -5.91351563 2.57109375 -6.73828125 2.9296875 C-9.1961834 4.02571894 -9.1961834 4.02571894 -12 6 C-14.1875 5.625 -14.1875 5.625 -16 5 C-5.00843526 -1.46562632 -5.00843526 -1.46562632 0 0 Z " fill="#82120F" transform="translate(96,60)"/>
<path d="M0 0 C0.66 0.33 1.32 0.66 2 1 C0.90033225 2.29549899 -0.20491801 3.58626071 -1.3125 4.875 C-1.92738281 5.59429687 -2.54226562 6.31359375 -3.17578125 7.0546875 C-5 9 -5 9 -8 11 C-7.690625 10.4225 -7.38125 9.845 -7.0625 9.25 C-5.91366693 7.09564603 -5.91366693 7.09564603 -5.6875 4.9375 C-5 3 -5 3 -2.5625 1.1875 C-1.716875 0.795625 -0.87125 0.40375 0 0 Z " fill="#900D0D" transform="translate(216,41)"/>
<path d="M0 0 C0.66 0.33 1.32 0.66 2 1 C1.67 1.66 1.34 2.32 1 3 C6.28 3 11.56 3 17 3 C17 3.33 17 3.66 17 4 C11.06 4.33 5.12 4.66 -1 5 C-1 1 -1 1 0 0 Z " fill="#661314" transform="translate(3,95)"/>
<path d="M0 0 C0 0.33 0 0.66 0 1 C-7.425 2.485 -7.425 2.485 -15 4 C-15 3.01 -15 2.02 -15 1 C-9.91913204 0.15318867 -5.15171623 -0.09038099 0 0 Z " fill="#971312" transform="translate(100,54)"/>
<path d="M0 0 C0.99 0.33 1.98 0.66 3 1 C1.12050295 4.57104439 -0.17053157 6.54744301 -4 8 C-4 6.68 -4 5.36 -4 4 C-2.68 4 -1.36 4 0 4 C0 2.68 0 1.36 0 0 Z " fill="#AC0E12" transform="translate(48,87)"/>
<path d="M0 0 C0.66 0.33 1.32 0.66 2 1 C-0.97 3.97 -3.94 6.94 -7 10 C-7 5.69032084 -4.83274712 4.10253255 -2 1 C-1.34 0.67 -0.68 0.34 0 0 Z " fill="#85140F" transform="translate(194,64)"/>
<path d="M0 0 C0.66 0 1.32 0 2 0 C1.43628586 3.26954202 0.50037734 4.82575883 -2 7 C-2.99 6.67 -3.98 6.34 -5 6 C-4.67 5.34 -4.34 4.68 -4 4 C-3.34 4 -2.68 4 -2 4 C-2 3.34 -2 2.68 -2 2 C-1.34 2 -0.68 2 0 2 C0 1.34 0 0.68 0 0 Z " fill="#96100F" transform="translate(21,77)"/>
<path d="M0 0 C0 0.66 0 1.32 0 2 C-1.6796875 3.32421875 -1.6796875 3.32421875 -3.875 4.6875 C-4.59429687 5.14511719 -5.31359375 5.60273437 -6.0546875 6.07421875 C-7.01761719 6.53248047 -7.01761719 6.53248047 -8 7 C-8.66 6.67 -9.32 6.34 -10 6 C-4.4 0 -4.4 0 0 0 Z " fill="#B90F0B" transform="translate(213,57)"/>
<path d="M0 0 C-0.33 1.65 -0.66 3.3 -1 5 C-3.66666667 5 -6.33333333 5 -9 5 C-7.87926138 4.16094435 -6.75325453 3.32892169 -5.625 2.5 C-4.99851562 2.0359375 -4.37203125 1.571875 -3.7265625 1.09375 C-2 0 -2 0 0 0 Z " fill="#99110F" transform="translate(70,34)"/>
<path d="M0 0 C0 0.99 0 1.98 0 3 C-3.3 3.33 -6.6 3.66 -10 4 C-4.66666667 0 -4.66666667 0 0 0 Z " fill="#960F0E" transform="translate(80,30)"/>
<path d="M0 0 C0.33 0.66 0.66 1.32 1 2 C-2.32307692 7.78461538 -2.32307692 7.78461538 -5.75 8.875 C-6.4925 8.91625 -7.235 8.9575 -8 9 C-7 7 -7 7 -4 6 C-3.65657551 4.66923011 -3.32380126 3.33568021 -3 2 C-2.01 1.34 -1.02 0.68 0 0 Z " fill="#D60B03" transform="translate(206,62)"/>
<path d="M0 0 C2.97 0 5.94 0 9 0 C7 4 7 4 5 5 C5 3.68 5 2.36 5 1 C3.35 1 1.7 1 0 1 C0 0.67 0 0.34 0 0 Z " fill="#7E1312" transform="translate(192,58)"/>
<path d="M0 0 C0.66 0.33 1.32 0.66 2 1 C0.38405168 3.04119788 -1.2856382 5.04072937 -3 7 C-3.66 7 -4.32 7 -5 7 C-5 5.68 -5 4.36 -5 3 C-2.625 1.1875 -2.625 1.1875 0 0 Z " fill="#A21212" transform="translate(226,81)"/>
<path d="M0 0 C1.32 0 2.64 0 4 0 C3.6875 1.875 3.6875 1.875 3 4 C2.01 4.66 1.02 5.32 0 6 C0 4.02 0 2.04 0 0 Z " fill="#AE0D0D" transform="translate(272,31)"/>
<path d="M0 0 C2 2 2 2 2 5 C0.35 5 -1.3 5 -3 5 C-1.125 1.125 -1.125 1.125 0 0 Z " fill="#D90909" transform="translate(176,92)"/>
</svg>
