<svg xmlns="http://www.w3.org/2000/svg" width="669" height="373"><path fill="#38393e" d="m379.938 112.813 2.87.966c9.36 3.331 17.274 7.9 24.442 14.784 2.896 2.759 5.768 5.487 8.867 8.015 2.488 2.09 4.63 4.165 6.758 6.61l1.805 2.042C426 147 426 147 426 149l1.793.773c7.52 4.18 10.805 13.236 13.898 20.817 1.623 4.037 1.623 4.037 4.309 7.41 4.828 12.13 1.19 23.362-3 35l-.977 2.723a614 614 0 0 1-1.859 5.03c-.985 2.748-1.917 5.502-2.828 8.274l-.915 2.783q-.897 2.744-1.784 5.492c-1.65 5.035-3.5 9.852-5.77 14.642-.927 2.2-1.502 4.362-2.055 6.681C423.988 267.361 413.5 271.719 406 276l-3.254 1.871q-3.551 2.039-7.113 4.055a398 398 0 0 0-7.078 4.117C376.862 292.928 364.587 297.991 352 303l-2.613 1.048C304.32 322.113 304.32 322.113 284 322.375l-2.43.043c-4.91-.041-8.34-.675-12.57-3.418-4.523-4.66-6.03-11.005-7.762-17.082-1.74-5.79-4.132-11.349-6.42-16.939-.335-.816-.67-1.633-1.013-2.475l-.907-2.193c-4.935-12.7-5.167-25.04-4.335-38.436l.136-2.401c.94-16.313 3.105-32.382 5.723-48.5.426-2.75.733-5.485.969-8.257.625-7.025 1.15-12.433 6.062-17.869 3.454-4.127 5.091-9.577 7.113-14.514 3.014-7.07 6.778-12.835 13.184-17.272 3.115-2.217 6.062-4.552 9-7 27.278-21.772 57.029-24.174 89.188-13.25"/><path fill="#101011" d="m358 168 4 2v3l2.371-.035 3.067-.028 3.058-.035C373 173 373 173 374 174c1.34.156 2.688.25 4.035.316l2.451.127 2.577.12 2.587.13q3.175.159 6.35.307l-1.5 2.313c-1.744 2.61-1.744 2.61-1.5 5.687l8 1v1h-3.5c-5.144.577-7.533 3.541-10.836 7.285L381 194h-2l-2 5 17 1v-2h2l1-3h2l.688-1.75c1.642-2.816 3.707-4.33 6.312-6.25l1.188 2 1.812 2c2.576.167 2.576.167 5 0v-15h2l1-2c2.858 5.716 4.285 10.756 2.379 17.05-2.462 5.986-6.014 11.394-9.477 16.837-1.935 3.068-1.935 3.068-3.472 6.254-3.227 6.453-7.607 11.624-13.43 15.859h-2l-1 3c-1.699 1.103-1.699 1.103-3.902 2.121l-2.452 1.147-2.584 1.17-2.478 1.158A416 416 0 0 1 371 242l-2.403 1.073c-7.753 3.304-15.785 4.902-24.023 6.55l-3.262.717-2.949.605c-2.612.87-2.612.87-3.695 3.659L334 257h-2l-1 3-3 1v-3c-3.608.388-7.21.815-10.812 1.25l-3.104.332-2.979.371-2.745.318c-2.972.918-3.636 2.215-5.36 4.729-3.187 1.25-3.187 1.25-6 2l1 3c1.987.521 3.978 1.035 5.988 1.46 2.487.667 4.125 1.81 6.012 3.54-2 2-2 2-5.5 2.375-3.511.229-3.511.229-4.937 2.438-.729 2.456-.729 2.456-.563 6.187l4 2v1c-7.933.234-15.403-.17-23.223-1.562-2.967-.542-2.967-.542-6.777-.438l-2.812-2c-3.727-2.338-5.873-2.345-10.188-2-1.425 4.276.35 6.478 2.188 10.43.934 2.955.656 4.627-.188 7.57-1.697-2.546-2.757-4.648-3.875-7.457l-1.047-2.623-1.078-2.733-1.078-2.697c-5.845-14.711-7.333-27.906-6.36-43.615l.136-2.396c.868-15.151 2.825-30.067 5.18-45.05A221 221 0 0 0 256 176l2 1 3-3-.5 3.625c-.732 6.445-.583 12.898-.5 19.375 1.797-7.643 3.52-15.288 5-23 10.11-.73 19.9-1.287 30 0-.458 6.576-1.51 12.953-2.775 19.419-1.207 6.26-2.123 12.546-3.023 18.856-.903 6.151-2.097 12.207-3.39 18.287-2.51 11.738-2.51 11.738-.812 23.438h-3v2h15l.25-4.187c.975-10.796 3.45-21.438 5.61-32.047 1.146-5.64 2.247-11.257 3.077-16.953.87-5.89 1.97-11.723 3.125-17.563l.53-2.712.506-2.522.453-2.273C311 176 311 176 312 175c2.146-.088 4.294-.107 6.441-.098l3.955.01 4.166.025q2.09.008 4.178.014 5.13.018 10.26.049l2-4 15 2z"/><path fill="#222125" d="M402 234v12c-10.625 5-10.625 5-14 5l-2-4c-5.455.345-9.405.797-14 4h-2l.586 2.457c1.682 7.152 3.18 14.3 4.414 21.543a677 677 0 0 0 5.75-2.75c1.067-.51 2.135-1.02 3.234-1.547 2.896-1.635 4.698-3.37 7.016-5.703l3.188-.375c5.991-.982 11.975-4.835 15.812-9.625.322-2.421.322-2.421.074-5.105l-.166-2.979-.22-3.103-.186-3.14q-.23-3.837-.502-7.673h4l1 15h3c.143 7.429.143 7.429-1 11 4.92-3.608 6.97-6.247 9-12h3l1-2h-2l-3-3-2 11-3 1c-.362-6.637.157-13.305 4.355-18.762C425 234 425 234 429 234c2.313 2.125 2.313 2.125 4 5 0 4.664-2.013 8.5-3.98 12.637-1.001 2.319-1.595 4.543-2.207 6.988-2.826 8.736-13.314 13.094-20.813 17.375l-3.254 1.871q-3.551 2.039-7.113 4.055a398 398 0 0 0-7.078 4.117C376.862 292.928 364.587 297.991 352 303l-2.613 1.048C304.32 322.113 304.32 322.113 284 322.375l-2.43.043c-4.906-.041-8.353-.66-12.57-3.418-5.735-6.278-7.12-13.707-6.797-21.918-.328-3.364-1.91-6.074-3.523-9.004-.68-2.078-.68-2.078.203-4.344L260 282c5.827-.466 8.307.663 13 4h4c2.003.312 4.003.648 6 1 6.385 1.027 12.547 1.21 19 1l-5-3c1.453-3.39 3.16-5.634 6-8 3.25-1.25 3.25-1.25 6-2l-2.336-.734-3.039-1.016-3.023-.984c-2.9-1.41-3.56-2.28-4.602-5.266l1.68-.77 2.195-1.043 2.18-1.019c2.25-1.163 2.25-1.163 3.945-4.168 3.23-.73 3.23-.73 7.188-1.187 1.292-.16 2.585-.318 3.917-.481 3.656-.312 7.228-.394 10.895-.332l1 2c3.78-2.593 3.78-2.593 5.832-6.54C336 251 336 251 338.363 249.944l2.95-.605 3.261-.717 3.426-.685c7.217-1.51 14.02-3.076 20.781-6.069 3.553-1.392 7.067-1.85 10.844-2.306 3.493-.345 3.493-.345 6.375-2.563h3v-2c5.017-3.181 7.488-3.094 13-1"/><path fill="#36343a" d="M411.367 142.055q2.307 1.312 4.567 2.707c3.285 1.968 6.817 2.918 10.503 3.863 9.37 5.027 13.122 15.902 16.633 25.273.85 2.262.85 2.262 2.93 4.102 4.819 12.107 1.21 23.387-3 35l-1.047 2.934a595 595 0 0 1-1.906 5.183c-2.148 5.915-4.079 11.906-6.047 17.883-1.937-.812-1.937-.812-4-2l-1-3c-3.6.973-4.773 1.627-6.75 4.875-1.996 4.99-2.354 8.699-2.25 14.125h2l1-11h3l1 3h2l-1 3-3 1-1.375 2.75c-1.747 3.495-3.766 5.623-6.625 8.25l-2-1 2-11h-3l-1 3v-18h-4l.46 1.729c1.6 6.734 2.597 14.4 1.54 21.271-2.43 3.429-5.157 4.514-9 6l-3.187 2.375C396 266 396 266 392.938 265.938c-4.17.088-5.058 2.117-7.938 5.062-3.25 1.852-6.598 3.448-10 5-1.686-3.006-2.394-5.577-2.852-8.984l-.39-2.832-.383-2.934-.406-2.98q-.494-3.634-.969-7.27c10.709-5.926 10.709-5.926 16-5 2 2 2 2 2 5l2.555-1.094 3.32-1.406 3.305-1.406C400 246 400 246 402 246l-1-11c-3.67-1.573-5.443-2.144-9.375-1.125L389 235v2c-1.412.676-2.83 1.34-4.25 2l-2.39 1.125C380 241 380 241 376 241v-2l2.887-1.355q1.9-.915 3.8-1.833l1.897-.884c4.247-2.068 7.192-4.395 10.416-7.928l2.438-2.312c6.21-6.513 10.381-13.766 14.562-21.688q1.37-2.44 2.75-4.875c3.153-5.729 5.248-10.41 4.25-17.125-.958-2.946-2.03-5.596-4-8-3.531-1.678-6.638-2.33-10.52-2.633l-3.095-.254-3.197-.238-3.256-.262q-3.966-.316-7.932-.613c-.23-9.483 1.484-17.12 7-25 5.221-3.764 11.45-4.581 17.367-1.945"/><path fill="#212125" d="m290 127 2 4-1.645.734C284.81 134.31 284.81 134.31 281 139l3.5-1c13.553-2.967 28.757-.754 42.5 0l-1 2-2.437.813c-2.796.972-2.796.972-3.875 3.812L319 147h-3v2l3-1c2.963-.27 5.925-.444 8.895-.621 3.084-.245 3.084-.245 5.718-1.406 5.215-1.498 10.368-1.18 15.762-1.098l3.387.027q4.119.036 8.238.098v1q-2.402.68-4.805 1.355c-1.554.457-3.1.942-4.64 1.446-5.069 1.635-9.23 2.546-14.555 2.199v-1h-7v2c-6.12 1.405-11.717 2.233-18 2v2h-8v2l1.962-.38c7.196-1.357 14.394-2.378 21.663-3.245l3.234-.406c6.098-.734 12-1.11 18.141-.969l-1 14 2 1h-7l1 3c-1.319 2.377-2.192 3.728-4.812 4.61-9.054.581-18.12.474-27.188.39-4.352 21.538-4.352 21.538-8.191 43.172l-.325 1.964q-.806 4.89-1.595 9.78c-1.379 8.433-3.042 16.74-4.889 25.084h-15v-2h3l-2-3c-1.237-7.35.616-14.724 2.15-21.892 2.272-10.752 3.975-21.598 5.743-32.442 1.24-7.584 2.53-15.142 4.107-22.666-3.167-.03-6.333-.047-9.5-.062l-2.687-.026c-4.173-.015-8.209.072-12.344.654C267 175 267 175 265 174l-.332 3.184c-.845 7.634-1.839 14.615-4.668 21.816h-1c-.185-16.893-.185-16.893 1-24l-3 4c-.736-6.866-.736-6.866 1.19-9.836l1.552-1.816c4.1-5.193 6.334-10.934 8.824-17.014 3.111-7.297 7.005-12.967 13.559-17.584l1.945-1.39L286 130q2.005-1.493 4-3"/><path fill="#171716" d="M295 174c-.5 6.574-1.509 12.948-2.775 19.419-1.207 6.26-2.123 12.546-3.023 18.856-.903 6.151-2.097 12.207-3.39 18.287-2.51 11.738-2.51 11.738-.812 23.438h-3l-1 2-2 2h17c-2.133 8.533-2.133 8.533-4 12v2c-2.78 2.126-4.334 3.029-7.875 2.875-4.42.177-6.804 2.374-10.125 5.125l-2-1 2-2v-3c1.5-1.687 1.5-1.687 3-3l-2.437 2c-3.997 2.722-7.896 2.373-12.563 2v4l7 1v2l4 2-2 1-1.687-.937c-3.154-1.45-5.888-1.195-9.313-1.063-1.425 4.276.35 6.478 2.188 10.43.934 2.955.656 4.627-.188 7.57-1.697-2.546-2.757-4.648-3.875-7.457l-1.047-2.623-1.078-2.733-1.078-2.697c-5.845-14.711-7.333-27.906-6.36-43.615l.136-2.396c.868-15.151 2.825-30.067 5.18-45.05A221 221 0 0 0 256 176l2 1 3-3-.5 3.625c-.732 6.445-.583 12.898-.5 19.375 1.797-7.643 3.52-15.288 5-23 10.02-1.503 19.936-.646 30 0"/><path fill="#151514" d="M409 233h4l1 15h3c.143 7.429.143 7.429-1 11 4.92-3.608 6.97-6.247 9-12h3l1-2h-2l-3-3-2 11-3 1c-.362-6.637.157-13.305 4.355-18.762C425 234 425 234 429 234c2.313 2.125 2.313 2.125 4 5 0 4.664-2.013 8.5-3.98 12.637-1.001 2.319-1.595 4.543-2.207 6.988-2.826 8.736-13.314 13.094-20.813 17.375l-3.254 1.871q-3.551 2.039-7.113 4.055a398 398 0 0 0-7.078 4.117C376.862 292.928 364.587 297.991 352 303l-2.613 1.048C304.32 322.113 304.32 322.113 284 322.375l-2.43.043c-4.907-.041-8.35-.662-12.57-3.418-4.391-4.704-5.664-9.722-6-16l1.75 2.25L267 308l1.813 2.25c3.04 2.433 5.333 2.681 9.187 2.75 3.216-1.693 3.837-2.512 5-6h8l1-6c2.67-.686 4.555-1.104 7.266-.469 3.342.573 5.964.122 9.296-.469 3.608-.63 6.763-1.062 10.438-1.062l2 2h-3l1 2c5.988.315 9.472-.44 15-3 1.988-.398 3.987-.755 6-1v-2c4.23-2.417 7.123-3.348 12-3l1-3 2-1 2-3 1-1v-2l5.176-2.05c1.893-.864 1.893-.864 3.27-2.442 1.911-1.854 3.61-2.44 6.116-3.32 5.991-2.284 12.536-5.15 17.028-9.852C391 265 391 265 394.125 264.687c6.013-1.066 12.011-4.864 15.875-9.687.322-2.421.322-2.421.074-5.105l-.166-2.979-.22-3.103-.186-3.14q-.23-3.837-.502-7.673"/><path fill="#262222" d="m379.938 112.813 2.87.966c9.36 3.331 17.274 7.9 24.442 14.784 2.896 2.759 5.768 5.487 8.867 8.015 2.488 2.09 4.63 4.165 6.758 6.61l1.805 2.042C426 147 426 147 426 149c-5.346-.327-8.248-1.489-12.422-4.844-3.98-2.916-8.876-2.738-13.578-2.156-2.893 1.093-5.311 2.436-8 4l-3-9c2.188-2.562 2.188-2.562 5-5 2.625-.062 2.625-.062 5 1 1.813 2.063 1.813 2.063 3 4l5-1 1-4-1.75-.687c-2.82-1.645-4.263-3.749-6.25-6.313-2.918-1.945-4.625-2.453-8-3v-2l-1.375 1.5C389 123 389 123 387 123c-3-4.385-3-4.385-3-7l-3.437-.437C377 115 377 115 376 114c-8.626-.58-17.4.35-26 1v2c-5.944 3.302-11.291 4.955-18 6l2.5 2.688c1.961 2.325 2.473 3.06 2.813 6.187L337 134c-6.581 3.52-11.763 4.141-19.152 4.027l-4.791-.037q-3.75-.037-7.498-.086c-2.425-.03-4.85-.048-7.274-.064l-2.245-.04c-4.434-.022-7.896.678-12.04 2.2-2.375-.375-2.375-.375-4-1 3.336-4.513 5.333-6.682 11-8l-.273-2.281C291 126 291 126 292.836 124.156c5.883-3.837 11.767-7.25 18.164-10.156l3.426-1.57c22.12-9.837 43.077-7.238 65.512.382"/><path fill="#343339" d="m379 115 2.5.375c2.5.625 2.5.625 4.313 2.5C387 120 387 120 387 123l2 1-6 7-1-2 1-3h-2c-1.866 3.588-3.425 7.278-5 11l5 2v2h2l1 5h-10v-2l-7 2 2 1 1 2 4-1-2 4h-5v-2l-2.812 1c-4.997 1.46-10.031 1.168-15.188 1v-3l6-3c-3.25-.058-6.5-.094-9.75-.125-.92-.017-1.84-.034-2.79-.05l-2.694-.02-2.476-.032c-2.527.25-4.073 1.034-6.29 2.227-2.77.344-2.77.344-5.812.5-3.58.236-6.83.529-10.25 1.625C312 151 312 151 309 150l7-1v-2l3-1 .875-2.437C321 141 321 141 323.625 139.688L326 139v-2l10-3c.185-5.008.185-5.008-2.5-8.312L331 123c3.203-2.135 5.258-2.277 9.004-2.648 2.745-.484 4.69-1.837 6.996-3.352h3v-2c23.64-3.573 23.64-3.573 29 0"/><path fill="#a2a4a2" d="M300 164c1.437-.081 2.874-.14 4.313-.187l2.425-.106c2.262.293 2.262.293 4.055 1.555C312 167 312 167 312 171l2.188-2c3.027-2.153 4.205-2.501 7.812-2l1 1q3.5.061 7 0c0 3 0 3-1 6h-17l-.586 3.91-.789 5.153-.383 2.568c-.566 3.668-1.184 7.17-2.219 10.74-1.45 5.143-2.195 10.355-3.023 15.629-.807 4.96-1.623 9.917-2.437 14.875l-.62 3.816c-1.403 8.506-3.08 16.892-4.943 25.309h-15v-2h3l-2-3c-1.237-7.351.617-14.725 2.15-21.894 2.264-10.723 3.97-21.539 5.743-32.352l.74-4.508.357-2.177A780 780 0 0 1 295 173h-5v-6l2 2 1-3c2.944-1.178 3.9-1.033 7 0z"/><path fill="#fab736" d="M411.332 142.02a129 129 0 0 1 4.516 2.667c2.935 1.79 5.97 3.026 9.152 4.313l-3 1 1 2c.084 1.594.107 3.192.098 4.79l-.01 2.85-.026 2.985-.013 3.008q-.018 3.683-.049 7.367l5 1-1 7h-2c-.125 5.578-.125 5.578 1 11h8c-.52-4.38-1.057-8.688-2-13h2l1-2 3 2c2.153-.308 2.153-.308 4-1-1.75 7.625-1.75 7.625-4 11l-2-1v3l3 1-1.852.707c-2.73 1.643-3.27 3.08-4.523 5.98-2.84 6.012-5.949 10.51-11.5 14.25-4 1.36-6.91 1.344-11.125 1.063l-2-1c.561-4.21 1.986-6.83 4.375-10.312 4.407-6.751 8.067-13.387 6.625-21.688-.967-2.943-2.03-5.595-4-8-3.531-1.678-6.638-2.33-10.52-2.633l-3.095-.254-3.197-.238-3.256-.262q-3.966-.316-7.932-.613c-.23-9.483 1.484-17.12 7-25 5.208-3.754 11.415-4.567 17.332-1.98"/><path fill="#1b1a1b" d="M253 239h1v9l2.047-1.277 2.703-1.66 2.672-1.653c4.267-2.334 4.267-2.334 6.578-2.41 2.691 1.617 2.691 1.617 5.563 3.875 3.923 3.107 3.923 3.107 8.437 5.125v-5h1l2 9h-3l-1 2-2 2h17c-2.133 8.533-2.133 8.533-4 12v2c-2.78 2.126-4.334 3.029-7.875 2.875-4.42.177-6.804 2.374-10.125 5.125l-2-1 2-2v-3c1.5-1.687 1.5-1.687 3-3l-2.437 2c-3.997 2.722-7.896 2.373-12.563 2v4l7 1v2l4 2-2 1-1.687-.937c-3.154-1.45-5.888-1.195-9.313-1.063-1.425 4.276.35 6.478 2.188 10.43.934 2.955.656 4.627-.188 7.57-1.697-2.546-2.757-4.648-3.875-7.457l-1.047-2.623-1.078-2.733-1.078-2.697c-2.984-7.51-5.215-14.315-6.047-22.365l-.262-2.375q-.313-2.874-.613-5.75l11 2v2l5 1v-2l4-1-2.957-.586-3.856-.789-3.832-.773C254 254 254 254 251 252c.52-4.38 1.057-8.688 2-13"/><path fill="#e3a9a5" d="M367 252c2.524 8.669 3.613 16.987 4 26-10.61 4.782-10.61 4.782-17 4l-3-2-.312 1.813c-.777 2.47-1.759 3.51-3.688 5.187l-2-1 2-3-6 1-1-2q1.935-.755 3.875-1.5l2.18-.844C348 279 348 279 350 279l-2-5c-5.511-.468-5.511-.468-10.5 1.438-2.214 3.78-1.83 7.283-1.5 11.562l8 1c-1 2-1 2-3.844 2.965l-3.656.973c-4.956 1.347-9.81 2.783-14.633 4.546C320 297 320 297 316 297c-.843-3.227-1.673-6.457-2.5-9.687l-.723-2.764-.683-2.686c-.21-.811-.42-1.623-.635-2.46-.482-2.522-.539-4.841-.459-7.403 2.036-.704 4.08-1.387 6.125-2.062l3.445-1.16c3.653-.829 5.853-.835 9.43.222 2.126 1.785 3.353 3.723 5 6l2-2c4.118-2.746 6.107-2.544 11-2 2.5 1.5 2.5 1.5 4 3l.313-2.312c.753-2.946 1.24-3.94 3.687-5.688l5-1-1-11c5-2 5-2 7-2"/><path fill="#bd5f1f" d="m300 280 3 1v4l3 1c.2 3.716.152 4.772-2 8l3.875-.062c3.875-.063 3.875-.063 6.125 1.062-.187 1.875-.187 1.875-1 4-4.675 2.866-11.966 3.631-17.309 2.52L294 301l-3 7c-5.75.125-5.75.125-8-1l-.25 1.813c-1.014 2.958-1.953 3.789-4.75 5.187-3.873.22-6.076-.177-9.008-2.79C264 305.654 264 305.654 264 303h-2l.25-3.437c.048-4.497-1.43-7.595-3.57-11.485-.68-2.078-.68-2.078.203-4.344L260 282c5.827-.466 8.307.663 13 4h4c2.003.312 4.003.648 6 1 6.385 1.027 12.547 1.21 19 1l-5-3c1.875-3.875 1.875-3.875 3-5"/><path fill="#0f0e0c" d="M409 233h4l1 15h3c.143 7.429.143 7.429-1 11 4.92-3.608 6.97-6.247 9-12h3l1-2h-2l-3-3-2 11-3 1c-.362-6.637.157-13.305 4.355-18.762C425 234 425 234 429 234c2.313 2.125 2.313 2.125 4 5 0 4.664-2.013 8.5-3.98 12.637-1.001 2.319-1.595 4.543-2.207 6.988C423.987 267.36 413.499 271.721 406 276l-3.324 1.906a3003 3003 0 0 1-7.113 4.059c-5.212 2.97-10.388 6.002-15.563 9.035l-1-2 1.375-1.187c1.787-1.73 1.787-1.73 2.313-4.188 1.978-3.956 5.406-5.713 9.312-7.625h2l-1-2-3.375 2c-3.375 2-3.375 2-5.625 2l-1 3-7 1c1.974-2.115 3.536-3.788 6.188-5 2.026-.856 2.026-.856 2.562-3.125L385 272l-2-1 2.313-1.312c2.646-1.473 2.646-1.473 4.062-3.313C391 265 391 265 394.125 264.688c6.013-1.067 12.011-4.865 15.875-9.688.322-2.421.322-2.421.074-5.105l-.166-2.979-.22-3.103-.186-3.14q-.23-3.837-.502-7.673"/><path fill="#dd9d9a" d="M414 230v21h-1v-18h-4l.46 1.729c1.6 6.734 2.597 14.4 1.54 21.271-2.43 3.429-5.157 4.514-9 6l-3.187 2.375C396 266 396 266 392.938 265.938c-4.17.088-5.058 2.117-7.938 5.062-3.25 1.852-6.598 3.448-10 5-1.686-3.006-2.394-5.577-2.852-8.984l-.39-2.832-.383-2.934-.406-2.98q-.494-3.634-.969-7.27c10.709-5.926 10.709-5.926 16-5 2 2 2 2 2 5l2.555-1.094 3.32-1.406 3.305-1.406C400 246 400 246 402 246l-1-11c9.625-5 9.625-5 13-5"/><path fill="#1b1a1c" d="m332 249-1 3h-8l-1 4 5 1v1l-1.88.212c-2.813.328-5.623.682-8.433 1.038l-2.958.332-2.842.371-2.619.318c-2.887.928-3.574 2.282-5.268 4.729-3.187 1.25-3.187 1.25-6 2l1 3c1.987.521 3.978 1.035 5.988 1.46 2.487.667 4.125 1.81 6.012 3.54-2 2-2 2-5.5 2.375-3.511.229-3.511.229-4.937 2.438-.729 2.456-.729 2.456-.563 6.187l4 2v1c-7.933.234-15.403-.17-23.223-1.562-2.967-.542-2.967-.542-6.777-.438l-.875-1.937c-.953-2.215-.953-2.215-3.125-3.063v-2h-7l-2-4c3.414-2.276 4.913-1.936 8.86-1.805 3.675-.335 6.108-2.174 9.14-4.195-1 3-1 3-4 5v3a56.5 56.5 0 0 0 7-4h6c2.786-.913 2.786-.913 5-2l-.687-1.75c-.313-2.25-.313-2.25 1-4.125L294 264l2-6h-17l1-3 17 1v-5l2 1 5-1c4.01-.312 8.032-.44 12.05-.605 5.375-.246 10.605-1.395 15.95-1.395"/><path fill="#2f2c31" d="M402 234v12c-10.625 5-10.625 5-14 5l-2-4c-5.455.345-9.405.797-14 4h-2l.621 2.387c1.95 7.887 2.994 15.501 3.379 23.613l-3 1-4-26-7 2 1 11-5 1 3-12-3 1.023c-6.619 2.242-13.173 4.444-20 5.977v-5c5.766-1.966 5.766-1.966 8.125-2.312 2.131-.566 2.131-.566 3.363-3.032 3.622-3.83 7.571-4.546 12.575-5.844q2.706-.733 5.41-1.48l2.414-.634c2.375-.68 2.375-.68 5.113-2.698l3.313.063c4.092-.07 6.146-1.131 9.687-3.063h3v-2c5.017-3.181 7.488-3.094 13-1"/><path fill="#babbb5" d="M306 176q-.426 3.846-.875 7.688l-.238 2.185c-.481 4.053-1.297 7.344-2.887 11.127-1.316 7.884-1.083 15.979-.875 23.944.09 5.733.09 5.733-2.125 9.056h-2c-2.28 6.84-3.07 13.87-4 21h-2v4h-5c-2.201-26.57-2.201-26.57 2-39l2-1q1.021-2.491 2-5l2-2c.424-2.136.424-2.136.563-4.5.342-4.31.342-4.31 1.437-6.5.044-1.353.04-2.709 0-4.062 0-3.938 0-3.938 1-4.938l.375-3.812c.73-6.169 2.247-8.438 8.625-8.188"/><path fill="#34230f" d="m389 170 3 1-2 3 3.035-.656 4.027-.844 1.99-.434c5.77-1.193 11.716-2.414 16.948.934l-.5 2.313c-.488 2.62-.539 4.97-.395 7.625.22 5.525.22 5.525-1.355 8.125-1.75.937-1.75.937-3.75.812-2.21-.967-3.353-2.144-5-3.875l-1.207 1.426-1.606 1.887-1.582 1.863c-2.942 3.344-2.942 3.344-4.605 4.824h-2v2c-11.522.185-11.522.185-17-1 1.205-4.972 4.32-7.26 8.125-10.352 2.095-1.699 2.095-1.699 3.875-4.648l-.562-1.937L388 180l3-4-14-1v-1l2.117-.113 2.758-.2 2.742-.175c2.745-.3 2.745-.3 4.383-3.512"/><path fill="#888786" d="M321.898 122.344c2.053.755 2.053.755 4.102.656l-2-2c4.013.534 6.26 1.605 9.313 4.25l2.113 1.766c1.969 2.481 1.888 3.894 1.574 6.984-6.581 3.52-11.763 4.141-19.152 4.027l-4.791-.037q-3.75-.037-7.498-.086c-2.425-.03-4.85-.048-7.274-.064l-2.245-.04c-4.434-.022-7.896.678-12.04 2.2-2.375-.375-2.375-.375-4-1 3.67-5.161 6.763-7.64 13-9a202 202 0 0 1 5.625-.375c5.411-.339 7.679-1.729 11.375-5.625-4.224.321-4.224.321-7.562 2.625L301 128c-2.687-.312-2.687-.312-5-1 .246-1.89.246-1.89 1-4 8.036-4.713 16.535-3.453 24.898-.656"/><path fill="#f4a377" d="M419 148h5l1 2h-3l1 2c.084 1.594.107 3.192.098 4.79l-.01 2.85-.026 2.985-.013 3.008q-.018 3.683-.049 7.367l5 1-1 7h-2c-.125 5.578-.125 5.578 1 11h8c-.52-4.38-1.057-8.688-2-13h2l1-2 3 2c2.153-.308 2.153-.308 4-1-1.75 7.625-1.75 7.625-4 11l-2-1v3l3 1-1.852.707c-2.73 1.643-3.27 3.08-4.523 5.98-2.84 6.012-5.949 10.51-11.5 14.25-4 1.36-6.91 1.344-11.125 1.063l-2-1c.563-4.174 1.95-6.79 4.313-10.25A79.7 79.7 0 0 0 420 188h2a834 834 0 0 0-.375-6.625c-.07-1.23-.14-2.46-.21-3.727-.26-3.57-.26-3.57-1.446-6.46-1.38-4.538-1.181-8.851-1.094-13.563l.027-2.809q.036-3.408.098-6.816"/><path fill="#f54437" d="M429 150c7.37 6.481 10.712 14.934 14.07 23.898.85 2.262.85 2.262 2.93 4.102.414 2.164.414 2.164.625 4.625l.227 2.477L447 187l-4-1-3 8-3-1 1-1-2-1v-3l2-1c1.52-3.894 1.52-3.894 2-8h-2l-1 3v-4l-5 1 1 2c1.287 3.86 1.138 6.942 1 11l-9 1c-1.125-8.625-1.125-8.625 0-12h2l1-7-5-1-1-23c3.18-1.06 3.98-1.167 7 0"/><path fill="#302e30" d="M446 182c2.64 2.64 2.36 3.932 2.438 7.625-.12 8.356-2.622 15.605-5.438 23.375l-1.047 2.934a595 595 0 0 1-1.906 5.183c-2.148 5.915-4.079 11.906-6.047 17.883h-1c-.125-6.39-.125-6.39.5-9.437.706-3.62.682-6.872.5-10.563-1.815-2.22-1.815-2.22-4.375-2.312-3.075.366-4.216 1.465-6.625 3.312l-3-1 1-2h-2v5l-3-1-.875-2.5L414 216c-2.52-.737-2.52-.737-5-1l-1-2 1.906.176c5.582.294 9.583-.084 14.207-3.348 4.817-4.667 7.985-10.84 10.887-16.828l5 1 2-10 1 2 3-1z"/><path fill="#2b292c" d="M348 273c2 2 2 2 2 6l-9 4 8-1-2 4c2.248-2.052 3.002-3.007 4-6l3 1c4.406.24 7.141.067 11-2l3 1c-5.5 4-5.5 4-10 4l1 4-2.937 1.875c-3.091 1.782-3.091 1.782-4.063 4.125-3.95 1.291-7.913 2.257-12 3v2l-2.082.586-2.73.789-2.708.773c-2.685.805-2.685.805-5.48 2.852-2.043.195-2.043.195-4.187.125L319 304v-6c7.325-4.77 15.556-6.966 24-9l-3.437-.875L336 287c-1.57-3.139-1.352-5.539-1-9 3.73-5.479 6.826-5.709 13-5"/><path fill="#1f2120" d="M409 233h4l1 15h3c.143 7.429.143 7.429-1 11l4-2 1 3c-5.48 6.446-14.761 9.22-22.5 11.938-4.52 1.61-8.388 3.612-12.5 6.062h-2l-1 3-7 1c1.974-2.115 3.536-3.788 6.188-5 2.026-.856 2.026-.856 2.562-3.125L385 272l-2-1 2.313-1.312c2.646-1.473 2.646-1.473 4.062-3.313C391 265 391 265 394.125 264.688c6.013-1.067 12.011-4.865 15.875-9.688.322-2.421.322-2.421.074-5.105l-.166-2.979-.22-3.103-.186-3.14q-.23-3.837-.502-7.673"/><path fill="#714843" d="m336 108-3 2 9 4c-2.767 2.972-5.308 5.27-9 7-3.043-.328-3.043-.328-6.187-1.25l-3.168-.89C321 118 321 118 319 117v2l5 1v2l5 2c-1.562.688-1.562.688-4 1a126 126 0 0 1-7-3c-7.137-2.532-13.345-.852-20 2v2l3 1 2.313-1.937c3.19-2.449 4.767-2.428 8.687-2.063-4.356 4.511-7.2 7.302-13.625 7.813l-2.914.269C293 131 293 131 291 129c.188-1.98.188-1.98 1-4a70 70 0 0 1 7-4.812l2.155-1.314C311.843 112.538 323.218 106.26 336 108"/><path fill="#acacab" d="M432 216c1.797 1.117 1.797 1.117 3 3 .328 2.883.328 2.883.25 6.125-.015 1.075-.03 2.15-.047 3.258C435 231 435 231 434 232a236 236 0 0 0-1 7c-2-1.375-2-1.375-4-3v-2c-3.6.973-4.773 1.627-6.75 4.875-1.996 4.99-2.354 8.699-2.25 14.125h2l1-11h3l1 3h2l-1 3-3 1-1.375 2.75c-1.747 3.495-3.766 5.623-6.625 8.25l-2-1q.965-4.657 1.938-9.312l.552-2.67 1.03-4.933C419 240 419 240 420 237h-2c-.988-4.441-1.558-8.465-1-13 3.655-4.87 8.624-9.049 15-8"/><path fill="#ba1916" d="m285 288 1 1c2.121.21 4.248.369 6.375.5 3.476.216 6.318.398 9.625 1.5.688 2.063.688 2.063 1 4l2.313.438C308 296 308 296 311 297v2q-2.874.079-5.75.125l-3.234.07C299 299 299 299 296.848 297.88c-1.826-1.132-1.826-1.132-3.743-.234l-1.918 1.168c-3.829 2.133-6.837 2.825-11.187 3.187l2 2v3l-1.812-.562c-2.352-.659-2.352-.659-5.188.562l-2-1c-1.232-4.184-1.65-8.29-.086-12.406 3.09-5.234 3.09-5.234 6.125-6.332 2.27-.303 3.805-.005 5.961.738"/><path fill="#2d2c2b" d="M273 157c1.063 1.75 1.063 1.75 2 4l-1 4 18 1c0 4 0 4-2 7h2l1-2v2l2 1-1.709-.016q-3.896-.029-7.791-.047l-2.687-.025c-4.173-.015-8.209.072-12.344.654C267 175 267 175 265 174l-.332 3.184c-.845 7.634-1.839 14.615-4.668 21.816h-1c-.419-19.163-.419-19.163 3-26h-2l1-5 4-1 1 3 2 1-.125-3.187c.118-3.598.427-5.686 2.125-8.813z"/><path fill="#342d2b" d="M253 239h1v9l2.047-1.277 2.703-1.66 2.672-1.653c4.267-2.334 4.267-2.334 6.578-2.41 2.691 1.617 2.691 1.617 5.563 3.875 3.923 3.107 3.923 3.107 8.437 5.125v-5h1l2 9h-3l-1 2c-5.685 2.843-13.365.726-19.375-.375l-2.127-.382c-3.401-.659-5.577-1.296-8.498-3.243.52-4.38 1.057-8.688 2-13"/><path fill="#be3231" d="M386 249v8l3 1c.418 4.267.547 6.292-2.125 9.75-3.79 2.965-6.972 5.25-11.875 5.25l-.402-3.07-.536-4.055-.263-2.016A303 303 0 0 0 372 252c4.945-2.924 8.183-4.745 14-3"/><path fill="#faaa24" d="m417 194 1 2h2v2c2.473-.344 2.473-.344 5-1l1-2c2.649-.594 5.292-.742 8-1-.955 6.769-4.923 12.241-9.96 16.758-4.755 3.288-8.327 3.833-14.04 3.242l-2-1c.563-4.3 2.095-7.047 4.5-10.625 1.905-2.85 3.414-5.118 4.5-8.375"/><path fill="#272629" d="M295 137h11c-5.385 10.308-5.385 10.308-10 14-2.812.813-2.812.813-5 1l4 1h-3l-.812 1.875c-1.854 3.318-4.883 4.526-8.188 6.125l-2 1c-1.666.04-3.334.044-5 0 .545-3.815 2.153-5.488 5-8l3-2-3-3c1.092-1.509 2.2-3.007 3.313-4.5l1.863-2.531L288 140h3l-3 4a435 435 0 0 0 3.938-1.875l2.214-1.055c2.011-.938 2.011-.938 2.848-3.07z"/><path fill="#9d362e" d="m300 280 3 1v4l3 1c.2 3.716.152 4.772-2 8l3.875-.062c3.875-.063 3.875-.063 6.125 1.062-.187 1.875-.187 1.875-1 4-4.675 2.866-11.966 3.631-17.309 2.52L294 301l-3 7-3.437-.062c-3.906-.021-7.633.415-11.485 1.039-2.517.028-3.934-.712-6.078-1.977l1-1q.553-3.492 1-7h1l1 6 4 1 1-2 3 3-3-6 3.5-.25c3.369-.387 5.69-1.255 8.625-2.937 3.521-1.898 3.521-1.898 6.75-1.125L301 298c3.322.475 6.654.749 10 1v-2l-2.312-.437C306 296 306 296 303 295c-.687-2.062-.687-2.062-1-4l-3.465-.148-4.473-.227-2.287-.094c-1.93-.104-3.854-.31-5.775-.531l-1-2h17l-5-3c1.875-3.875 1.875-3.875 3-5"/><path fill="#313036" d="M326 137h10l1 3 1.21-1.484c2.282-1.933 3.468-1.862 6.415-1.766.797.015 1.593.03 2.414.047C349 137 349 137 350 138q.062 3.5 0 7l3 1-3.797-.07q-2.476-.029-4.953-.055l-2.5-.05-2.422-.02-2.222-.032c-2.416.26-3.974 1.096-6.106 2.227-2.77.344-2.77.344-5.812.5-3.58.236-6.83.529-10.25 1.625C312 151 312 151 309 150l7-1v-2l3-1 .875-2.437C321 141 321 141 323.625 139.688L326 139z"/><path fill="#ae2725" d="M331.063 272.125c1.437 2.875.758 4.842-.063 7.875l-2 3 7 6c-2 2-2 2-4.312 2.375-3.652-.51-5.166-1.713-7.688-4.375-.937-3.125-.937-3.125-1-6l2-2c.643-2.069.643-2.069 1-4h-6l.656 2.633.844 3.492.844 3.445c.62 3.245.776 6.138.656 9.43l-4 1c-3.295-7.188-5.021-14.17-6-22 12.906-3.687 12.906-3.687 18.063-.875"/><path fill="#ddb1ae" d="M331.77 270.082c1.898 2.96 2.335 6.196 2.918 9.606l.392 2.126c.317 1.727.62 3.456.92 5.186l8 1c-1 2-1 2-3.844 2.965l-3.656.973c-4.956 1.347-9.81 2.783-14.633 4.546C320 297 320 297 316 297c-.843-3.227-1.673-6.457-2.5-9.687l-.723-2.764-.683-2.686c-.21-.811-.42-1.623-.635-2.46-.482-2.522-.539-4.841-.459-7.403 2.036-.704 4.08-1.387 6.125-2.062l3.445-1.16c4.234-.96 7.426-1.004 11.2 1.304M313 273c.69 7.427 2.659 15.318 6 22l4-1c-.516-6.499-1.467-12.662-3-19h6l-.937 2.188c-1.519 3.808-1.519 3.808-2.063 7.812 2.292 2.792 2.292 2.792 5 5l1 1q3.51-.43 7-1l-2.375-2.312C331 285 331 285 329 282l1.563-1.687c1.7-2.233 1.7-2.233 1.25-4.938-.67-2.525-.67-2.525-2.813-4.375-5.776-.398-10.452.415-16 2"/><path fill="#a7a8a2" d="m324 123 1 2-2.125-.43c-5.85-.963-5.85-.963-11.387.7-1.943 1.49-3.747 3.01-5.488 4.73 2.123.53 4.248 1.048 6.375 1.563l3.586.878c2.945.857 2.945.857 5.039-.441-3.978-.733-3.978-.733-8-1 1-3 1-3 4-5 3.517.517 3.517.517 5 2q3.5.061 7 0l1-2v6c-4.266 2.42-7.23 3.37-12.125 3.25l-3.64-.078A829 829 0 0 1 310 135l-2.6-.111A1486 1486 0 0 1 290 134c2.712-2.956 4.304-3.42 8.313-3.875 5.38-.828 7.92-2.255 11.687-6.125-4.224.321-4.224.321-7.562 2.625L301 128c-2.687-.312-2.687-.312-5-1 .246-1.89.246-1.89 1-4 8.404-4.928 18.404-3.653 27 0"/><path fill="#68615d" d="M389 185a88 88 0 0 1 7.625.375l2.14.172c1.746.141 3.49.296 5.235.453-1.046 5.028-4.143 8.67-8 12h-2v2c-11.522.185-11.522.185-17-1 1.379-5.687 5.705-8.447 10-12z"/><path fill="#242125" d="m316 298 5 2-3 1 1 2h3v2c-8.404 3.98-18.6 7-28 7-1.062-1.812-1.062-1.812-2-4l1-3c-.39-2.143-.39-2.143-1-4 2.662-.685 4.55-1.105 7.254-.473 3.386.583 6.113.157 9.496-.402l3.484-.555c2.664-.285 2.664-.285 3.766-1.57"/><path fill="#3a3633" d="M396.625 131.938c2.766 1.237 3.808 2.506 5.375 5.062 2.763-.523 5.326-1.109 8-2 7.076 1.742 11.99 6.043 16 12v2c-5.346-.327-8.248-1.489-12.422-4.844-3.98-2.916-8.876-2.738-13.578-2.156-2.893 1.093-5.311 2.436-8 4l-3-9c4.253-4.982 4.253-4.982 7.625-5.062"/><path fill="#cd453e" d="M429 150c7.37 6.481 10.712 14.934 14.07 23.898.85 2.262.85 2.262 2.93 4.102.414 2.164.414 2.164.625 4.625l.227 2.477L447 187l-4-1-3 8-3-1 1-1-2-1v-3l2-1c1.52-3.894 1.52-3.894 2-8h-2l-1 3v-4h-2v-2h4l-3-12h-2l-.625-3.875c-.469-2.204-.469-2.204-1.375-4.125-2.914-1.555-2.914-1.555-6-2l-2-1v19l6 1-1 6-2-1 1-4-5-1-1-23c3.18-1.06 3.98-1.167 7 0"/><path fill="#c7201e" d="M366 254q.757 4.092 1.5 8.188l.434 2.33c.698 3.876 1.256 7.523 1.066 11.482l-2.937 1.438c-2.868 1.264-2.868 1.264-4.063 2.562-2.67.141-5.324.042-8 0-1.444-2.889-1.377-4.796-1-8 3.28-4.217 4.612-4.922 10-6l-2-11c3-1 3-1 5-1"/><path fill="#ccd0ca" d="M327 258c-.608 3.546-.978 3.981-3.937 6.5-8.133 5.35-15.364 7.164-25.063 6.5l-2-4 1.68-.77 2.195-1.043 2.18-1.019c2.25-1.163 2.25-1.163 3.945-4.168a62 62 0 0 1 7.25-1.187c1.305-.16 2.61-.318 3.953-.481A90 90 0 0 1 327 258"/><path fill="#252226" d="M300 271q2.188-.04 4.375-.062l2.46-.036C309 271 309 271 311 272c.79 2.505 1.46 4.95 2.063 7.5l.534 2.193c1.206 5.094 2.03 10.08 2.403 15.307l6-1c-2.068 2.797-3.144 3.027-6.687 3.688L312 300l2-5-3.312.063C307 295 307 295 304 294l1-8-2-1a129 129 0 0 1-2-7l8-3-9-3z"/><path fill="#381f1f" d="M446 182c2.701 2.701 2.299 4.166 2.313 7.938-.079 6.404-1.277 12.014-3.313 18.062l-4 1-1-9-2 4h-2l-1 2-1-5-3 1c1.199-3.083 2.477-6.063 4-9l5 1 2-10 1 2 3-1z"/><path fill="#2c2c28" d="M258 192h1l1 5h1c.473 8.785-.999 17.196-2.5 25.813q-.54 3.138-1.07 6.277-.479 2.828-.971 5.655c-.397 2.815-.553 5.42-.459 8.255l3-1a100 100 0 0 1 5 0c-1.193 2.386-2.144 2.837-4.437 4.125l-1.872 1.07C256 248 256 248 254 248l-1-4-2 4c.44-8.462 1.52-16.672 2.909-25.02.917-5.601 1.546-11.158 1.88-16.828C256 204 256 204 257 202c.226-1.704.409-3.413.563-5.125l.253-2.758z"/><path fill="#2f3336" d="M371 161h2l1 4h2v2c7.727.709 15.457 1.393 23.188 2.063l3.173.275L410 170v1q-3.592.758-7.187 1.5l-2.042.434c-3.646.747-7.047 1.24-10.771 1.066l1-3h-2l-2 3c-3.04.512-3.04.512-6.625.688l-3.602.199L374 175l-1.312-2.875C371.207 168.8 371.207 168.8 368 167h3z"/><path fill="#56585e" d="m389 143 3 1 1 3a1924 1924 0 0 1-2.941 5.46c-2.053 4.924-2.449 10.275-3.059 15.54l-11-1-1-6 2.938-1c3.17-1.607 3.17-1.607 3.683-3.98.23-1.998.313-4.01.379-6.02h3v2h2z"/><path fill="#b11712" d="m285 288 1 1c2.183.235 4.372.414 6.563.563l3.628.253L299 290v1h-20l-1 3h8l-1 7-5 1 2 2v3l-1.812-.562c-2.352-.659-2.352-.659-5.188.562l-2-1c-1.232-4.184-1.65-8.29-.086-12.406 3.09-5.234 3.09-5.234 6.125-6.332 2.27-.303 3.805-.005 5.961.738"/><path fill="#2e313a" d="M300 155h2l-1 7c4.02.273 4.02.273 8 0l1.813-1.937c3.631-3.424 8.368-2.897 13.187-3.063l-.918 1.813a122 122 0 0 0-2.394 5.187c-1.84 3.27-3.585 4.931-6.688 7h-2l-.937-2.437c-.826-2.454-.826-2.454-2.063-3.563a86 86 0 0 0-4.562-.562l-2.504-.254L300 164v2l-5-1 2-7h2z"/><path fill="#2b2b2a" d="M429 234c2.313 2.125 2.313 2.125 4 5 0 5.055-2.2 10.779-5 15-2.137.762-2.137.762-4 1-.687-1.75-.687-1.75-1-4 1.313-2.25 1.313-2.25 3-4h2l1-2h-2l-3-3-2 11-3 1c-.362-6.637.157-13.305 4.355-18.762C425 234 425 234 429 234"/><path fill="#222221" d="M440 199h1v10l3-1-.55 1.582c-2.076 6.075-3.814 12.211-5.45 18.418h-1l-.184-1.898-.253-2.477-.247-2.46c-.207-2.208-.207-2.208-1.316-4.165-.225-1.537-.408-3.08-.562-4.625l-.254-2.477L434 208l-3 5-3-1 2-1c.467-2.126.467-2.126.625-4.562l.227-2.504L431 202l3-1 2 3h2z"/><path fill="#201d21" d="M385 272c-.062 2.25-.062 2.25-1 5-2.23 1.678-4.474 2.76-7 4v3c-6.5 3.104-10.89 4.58-18 3l-1-3 5.176-2.05c1.89-.86 1.89-.86 3.242-2.427 2.016-1.941 3.964-2.623 6.582-3.586C383.627 272 383.627 272 385 272"/><path fill="#3e3f4b" d="M371.063 143.938 374 144v2h6l-2 6h-3v6h6l-1 2c-2.562.625-2.562.625-5 1l1 4h-2l-1-4h-5c-1.125-3.75-1.125-3.75 0-6h-4l1-3c4.75-1.125 4.75-1.125 7 0v-3l-4 1c-1-2-1-2-1-5 1-1 1-1 4.063-1.062"/><path fill="#9a9a95" d="M300 231h1c-.507 8.562-2.096 16.64-4 25h-15v-2h3l-2-3c-.23-2.523-.23-2.523-.187-5.375l.019-2.836c.162-2.685.573-5.17 1.168-7.789h1c.883 4.518 1.106 8.775 1.063 13.375l-.028 3.773L286 255h5v-4h2l.184-2.082.253-2.73.247-2.708C294 241 294 241 295 238h3z"/><path fill="#1b1a20" d="m341.078 144.805 3.516.02 3.656.05 3.703.027q4.524.036 9.047.098v1q-2.402.68-4.805 1.355c-1.554.457-3.1.942-4.64 1.446-5.069 1.635-9.23 2.546-14.555 2.199v-1h-7v2c-3.155.936-5.966 1.106-9.25 1.063l-2.703-.028L316 153v-3c3.386-2.257 4.949-2.303 8.938-2.5 4.107-.105 4.107-.105 7.864-1.51 2.873-1.294 5.132-1.216 8.276-1.185"/><path fill="#b32d27" d="M348 273c2 2 2 2 2 6l-9 4 8-1-4 6q-2.22-.172-4.437-.375c-.824-.07-1.648-.14-2.497-.21L336 287c-1.57-3.139-1.352-5.539-1-9 3.73-5.479 6.826-5.709 13-5"/><path fill="#29282e" d="M338 149v1h11v2c6.029-.512 12.02-1.07 18-2v2c-2.06.346-4.124.676-6.187 1l-3.481.563c-3.408.434-6.711.435-10.144.375-8.746-.071-17.33 1.033-26 2.062l-5.026.578q-6.083.7-12.162 1.422v-2h8v-2l18-2v-2c2.709-1.354 5.01-1.065 8-1"/><path fill="#ba7020" d="M263.25 281.625c4.35.435 6.24 1.88 9.75 4.375h4a69 69 0 0 1 4 1l-1.875.188c-2.363.619-2.363.619-3.187 3.125-.31.886-.62 1.773-.938 2.687-1.312 2.313-1.312 2.313-3 4-2.687.25-2.687.25-5 0l2-3h2v-3l-3.75.125c-5.757-.03-5.757-.03-8.25-2.125-.875-2.5-.875-2.5-1-5 2-2 2-2 5.25-2.375"/><path fill="#8d8d92" d="M369 245c-.023 2.277-.023 2.277-1 5a49 49 0 0 1-7.625 3.563l-2.289.896c-7.217 2.752-14.57 4.78-22.086 6.541v-5l2.371-.781a1170 1170 0 0 0 13.692-4.719l2.681-.934c3.446-1.204 6.87-2.409 10.252-3.785C367 245 367 245 369 245"/><path fill="#f2b598" d="m434 177 1.75 1.063c2.648 1.103 3.582.739 6.25-.063-1.75 7.625-1.75 7.625-4 11l-2-1v3l3 1c-2.962 1.671-5.37 2.327-8.75 2.625l-2.422.227L426 195l-1 3h-5v-2h-2l1-7 3-1 1-2-1 6h1l1 3 2-3c1.945-.293 1.945-.293 4.125-.187L434 192c-.52-4.38-1.057-8.688-2-13h2z"/><path fill="#424452" d="m285.313 165.375 3.8.336L292 166c0 4 0 4-2 7h2l1-2v2l2 1c-7.737.122-15.307-.152-23-1 .188-2.875.188-2.875 1-6 4.128-2.403 7.66-2.06 12.313-1.625"/><path fill="#f33b2b" d="m336 108-3 2 9 4c-2.767 2.972-5.303 5.278-9 7-3.113-.363-3.113-.363-6.312-1.312l-3.239-.926L321 118v-3c4.222-3 4.222-3 7-3l-1-3c2.957-1.478 5.742-1.06 9-1"/><path fill="#f33a2e" d="M430 156h2c1.765 3.088 2 4.233 2 8h2a345 345 0 0 1 1.5 3.75l.844 2.11C439 172 439 172 439 176h-5l-1-9h-2l-2 4h-4a444 444 0 0 1-.125-5.375l-.07-3.023C425 160 425 160 427 158l2 5-.062-2.937C429 157 429 157 430 156"/><path fill="#0f0f0d" d="M298 313v2c-.638.182-1.276.364-1.934.55-.826.252-1.652.504-2.503.762l-2.497.739L289 318l-1 3 3 1q-3.844.08-7.687.125l-2.186.05c-4.117.038-7.556-.004-11.127-2.175-.812-2.125-.812-2.125-1-4q2.406-.253 4.813-.5l2.707-.281c3.001-.265 5.905-.204 8.918-.094 4.675-.164 7.774-2.391 12.562-2.125"/><path fill="#3b2e2f" d="m374 249-4 2 .621 2.387c1.95 7.887 2.994 15.501 3.379 23.613l-3 1-4-26-7 2 1 11-5 1 1-3.125c.972-3.36 1.171-6.366 1-9.875 10.374-4.592 10.374-4.592 16-4"/><path fill="#1b1b1b" d="m292 153 2 3-5 5 1.813-.5C293 160 293 160 296 160c-.312 2.375-.312 2.375-1 5-3.784 2.523-5.413 2.05-9.875 1.625-4.063-.37-8.044-.703-12.125-.625l1-5 6.055.293L282 161l2-3 2.438-.437c2.72-.333 2.72-.333 4.375-2.625z"/><path fill="#4a4b52" d="M407 211c1.125 1.688 1.125 1.688 2 4-.768 3.744-1.97 4.975-4.937 7.438-3.213 2.321-3.213 2.321-4.5 5.625-2.17 4.079-4.421 4.98-8.563 6.937h-2v2c-1.412.676-2.83 1.34-4.25 2l-2.39 1.125C380 241 380 241 376 241v-2l2.887-1.355q1.9-.915 3.8-1.833l1.897-.884c4.247-2.068 7.192-4.395 10.416-7.928l2.438-2.312c3.875-4.065 7.77-8.31 9.562-13.688"/><path fill="#7d7e82" d="m322 167 1 1q3.5.061 7 0c0 3 0 3-1 6h-17l-1 6c-1.5-1.312-1.5-1.312-3-3v-3h-2l1-4 1 3h3l1-4v2l2.188-2c3.027-2.153 4.205-2.501 7.812-2"/><path fill="#26262c" d="M349 137c1 1 1 1 1.063 4.563L350 145l3 1-3.867-.035-5.008-.028-2.55-.025-2.442-.01-2.254-.016c-1.97-.004-1.97-.004-3.879 1.114 2.68-8.528 7.455-11.236 16-10"/><path fill="#10100f" d="M280 255q4.313-.04 8.625-.062l2.45-.026c4.403-.018 8.621.025 12.925 1.088 1.875 2.063 1.875 2.063 3 4-1.562 2.438-1.562 2.438-4 5-3.75.813-3.75.813-7 1-1.125-5.75-1.125-5.75 0-8h-17z"/><path fill="#272738" d="M322 167q4.156-.04 8.313-.062l2.38-.026 2.295-.01 2.11-.016C339 167 339 167 342 168l-1 7c-9.722 1.434-19.24.651-29 0v-1l17-1v-2c-1.839-2.287-1.839-2.287-4.625-2.125L322 169z"/><path fill="#151516" d="M277 270v3l-3 2v3l-1 1c2.773 1.938 2.773 1.938 5 3v3l2 1-6 2-1.375-2.437c-1.372-2.652-1.372-2.652-3.625-3.563v-2h-7l-2-4c3.424-2.282 4.964-1.937 8.926-1.805 3.463-.326 5.4-2.056 8.074-4.195"/><path fill="#f6bd50" d="m394 144 2 1-1 4h-2l-.113 2.012c-.377 5.058-.7 8.83-3.887 12.988h4v2c6.553 2.286 13.104 2.606 20 3l1 3-3.113-.402c-7.952-1.017-15.894-1.954-23.887-2.598-.464-9.748 1.911-16.753 7-25"/><path fill="#332525" d="M338 112q3.345.214 6.688.438c1.24.08 2.482.162 3.761.246 2.933.26 5.685.664 8.551 1.316v1h-7v2c-6.71 3.728-13.246 6-21 6a102 102 0 0 1-5.187-2l-2.731-1.125L319 119v-2l2.781.832c6.948 2.064 6.948 2.064 13.93 1.254 1.928-1.246 3.63-2.504 5.289-4.086z"/><path fill="#f8ac2c" d="m417 194 1 2h2v2c2.473-.344 2.473-.344 5-1l1-2c2.649-.594 5.292-.742 8-1-.558 4.15-1.89 6.731-4.312 10.125l-1.801 2.57c-1.82 2.222-3.465 3.777-5.887 5.305h-2v-2l3-1c.802-1.874.802-1.874 1.188-4.062L425 201l-10-1z"/><path fill="#2c2c28" d="m331 126 5 5c-1 3-1 3-2.828 3.95-7.175 2.186-13.732 2.373-21.172 2.05l-2.83-.111c-6.724-.266-13.447-.565-20.17-.889 3.661-2.324 6.727-2.205 10.996-2.125l2.032.023c2.857.033 5.713.089 8.57.143 2.09.036 4.182.06 6.273.084l3.78.07c3.305-.192 5.464-.591 8.349-2.195 1.372-3.03 1.372-3.03 2-6"/><path fill="#26262a" d="m288 263 2 2 2-2c.288 3.05.426 5.958 0 9-2.125 2.063-2.125 2.063-5 3l-2.875-.125c-4.42.177-6.804 2.374-10.125 5.125l-2-1q2.87-3.161 5.75-6.312l1.633-1.803c2.698-2.946 5.28-5.641 8.617-7.885"/><path fill="#12100d" d="M252 229h1c-.514 7.689-1.077 15.349-2 23 5.98 1.72 11.808 3.312 18 4l-1 2h-4v2c-6.152-.586-6.152-.586-8-1l-1-2c-3.03-.658-3.03-.658-6-1-1.223-3.669-.91-6.84-.625-10.625l.133-2.102c.361-5.142.361-5.142 1.492-6.273l.5-3.5c.5-3.5.5-3.5 1.5-4.5"/><path fill="#4f3617" d="M416 174c3.297 4.157 4.377 7.392 4.27 12.777-1.066 8.786-7.617 16.916-12.27 24.223l-1-3a83 83 0 0 1 3-4 88 88 0 0 0 2-5h2v-3h2l-1-4h-3l2-1v-15h2z"/><path fill="#272327" d="m365 279 3 1c-5.5 4-5.5 4-10 4l1 4-2.937 1.875c-3.091 1.782-3.091 1.782-4.063 4.125-2.32.714-4.655 1.375-7 2l-2.75 1.188C340 298 340 298 337 297c5.292-4.513 10.04-7.171 17-8l1-5-7 2 3-6 3 1c4.406.24 7.141.067 11-2"/><path fill="#8d8b89" d="m389 170 3 1-2 3 1.723-.437c4.9-1.178 9.242-1.777 14.277-1.563-2.62 1.746-4.038 2.387-7 3l1 3h2v-3l4-1v2c-2.76 2.453-5.496 4.757-9 6-2.25-.375-2.25-.375-4-1l3-2h-4v3l-4 1c.75-4.75.75-4.75 3-7l-14-1v-1l2.117-.113 2.758-.2 2.742-.175c2.745-.3 2.745-.3 4.383-3.512"/><path fill="#171a20" d="M349 153v1q-4.218.694-8.437 1.375l-2.58.42c-4.29.683-8.564 1.295-12.89 1.709l-2.314.227q-2.171.203-4.345.358c-4.63.437-6.325 1.59-9.434 4.911-2.36.39-2.36.39-4.75.25l-2.422-.11L300 163l1-6 2.184-.113c9.336-.572 18.57-1.656 27.843-2.87 6.05-.768 11.874-1.164 17.973-1.017"/><path fill="#461c1a" d="m342 105.75 2.271.012c6.368.098 12.5.894 18.729 2.238l1 3c-4.26 2.13-10.565 1.758-15.047.363a880 880 0 0 1-3.695-1.629C340.382 108.15 335.09 108.225 330 108c3.786-2.485 7.632-2.304 12-2.25"/><path fill="#b77573" d="m300 280 3 1v4l3 1c.2 3.716.152 4.772-2 8l3.875-.062c3.875-.063 3.875-.063 6.125 1.062-.875 3.875-.875 3.875-2 5-1.666.04-3.334.043-5 0l4-1v-2l-2.312-.437C306 296 306 296 303 295c-.687-2.062-.687-2.062-1-4l-3.465-.148-4.473-.227-2.287-.094c-1.93-.104-3.854-.31-5.775-.531l-1-2h17l-5-3c1.875-3.875 1.875-3.875 3-5"/><path fill="#afafa9" d="M293 209h1l-1 7h-2l-1 22h-2l-2 4c-1.717-1.717-1.213-3.905-1.25-6.25.049-6.774 1.077-13.32 3.25-19.75l2-1a125 125 0 0 0 2-5z"/><path fill="#5b5d6b" d="M300 164a196 196 0 0 1 4.375-.187l2.46-.106L309 164l2 3-2 3-1-3h-2l-2 4h-2v-4h-2l-1 7-4 1v-2h-5v-6l2 2 1-3c2.944-1.178 3.9-1.033 7 0z"/><path fill="#303130" d="M429.875 219.063C432 220 432 220 433 221c.072 1.686.084 3.375.063 5.063l-.028 2.785L433 231h-3v-4c-3.433 1.206-5.504 2.385-8 5h-2c-.483-3.453-.788-5.954 1.383-8.836 4.541-4.187 4.541-4.187 8.492-4.101"/><path fill="#2f1a0b" d="m263 303 1.75 2.25L267 308l1.813 2.25c3.04 2.433 5.333 2.681 9.187 2.75 3.216-1.693 3.837-2.512 5-6h8l1-2 2 1c-.937 1.875-.937 1.875-3 4-2.955.954-5.937 1.512-9 2v2c-3.567 2.378-5.872 2.387-10.04 2.656L270 317l-1 2c-3.869-5.368-5.645-9.365-6-16"/><path fill="#282525" d="M390 265c1.945-.293 1.945-.293 4.125-.187L398 265v2l-4 2 2 3a984 984 0 0 1-4.875 3l-2.742 1.688C386 278 386 278 384 278l-1 3-7 1c1.974-2.115 3.536-3.788 6.188-5 2.026-.856 2.026-.856 2.562-3.125L385 272l-2-1 2.375-1.312c2.842-1.58 2.842-1.58 4.625-4.688"/><path fill="#262521" d="m325.5 125.063 2.5.937-1 3c-3.47-.458-6.674-.891-10-2l-4 4 2.813-.625C319 130 319 130 322 132c-2.732 1.88-3.884 2.017-7.234 1.54-1.16-.303-2.32-.604-3.516-.915l-3.547-.898L305 131a281 281 0 0 1 5-5l1.813-1.875c4.362-2.243 9.24-.413 13.687.938"/><path fill="#1f1c15" d="M411 198c1 3 1 3-.25 5.625L409 207a220 220 0 0 0-1.25 4.313c-2.089 6.497-6.114 11.836-11.687 15.75L394 228l2-4h2l.813-2.25c1.14-2.64 2.28-4.606 4.187-6.75h2l-2-3h-3c.313-1.875.313-1.875 1-4l3-2c.73-2.563.73-2.563 1-5l5 1z"/><path fill="#413f3a" d="m303 118 1 3-6 3v2l3 1 2.313-1.937c3.19-2.449 4.767-2.428 8.687-2.063-4.356 4.511-7.2 7.302-13.625 7.813l-2.914.269C293 131 293 131 291 129c.027-1.89.027-1.89 1-4 2.504-1.922 2.504-1.922 5.563-3.75l3.066-1.86z"/><path fill="#d1a4a2" d="M327 270v1q-2.374.506-4.75 1l-2.672.563C317 273 317 273 313 273l.586 1.688c2.281 6.685 4.11 13.36 5.414 20.312 3.113-.669 3.113-.669 4.188-3.062L324 290l2 5c-3.62 1.316-6.096 2-10 2-.843-3.227-1.673-6.457-2.5-9.687l-.723-2.764-.683-2.686c-.21-.811-.42-1.623-.635-2.46-.482-2.522-.539-4.841-.459-7.403 10.374-3.629 10.374-3.629 16-2"/><path fill="#b62822" d="m330 273 2 1c-.498 3.735-.875 5.812-3 9l7 6c-2 2-2 2-4.312 2.375-3.652-.51-5.166-1.713-7.688-4.375-1.265-3.715-1.325-5.289.313-8.875L326 276h2v3h2z"/><path fill="#312a2c" d="M348 265h4c.845 3.378 1.108 5.675 0 9l-1.5-1c-3.511-1.404-6.805-1.609-10.5-1-2.304 1.118-3.981 2.385-6 4l-1.625-2.937c-2.075-3.273-2.075-3.273-5.312-4-2.889-.06-5.278.2-8.063.937 2-3 2-3 4.313-3.512l2.687-.175 2.688-.2A88 88 0 0 1 333 266v4l3 1 1.625-1.562c2.957-1.79 3.837-1.378 7.125-.625 1.421.378 2.84.768 4.25 1.187z"/><path fill="#7f807b" d="M255 249c8.551-.277 16.585.48 25 2v4h-9v-2h-2v-2h-2v3l-12-1z"/><path fill="#9c9e9b" d="m387 206 2 3h-2l2 2 1 3c-1.687 2.063-1.687 2.063-4 4-3.392-.162-4.583-.583-7-3-.334-3.137-.528-5.166 1.188-7.875 2.451-1.522 3.98-1.56 6.812-1.125"/><path fill="#7a7b7a" d="M411.625 179.25C414 180 414 180 415 181c.466 7.23.466 7.23-1.25 10.063-1.75.937-1.75.937-3.812.812C408 191 408 191 406 188c-.331-3.182-.506-5.174 1.188-7.937C409 179 409 179 411.625 179.25"/><path fill="#8e8f8a" d="m307 178 2 1c1.54 4.874.599 9.03-.387 13.898-1.055 5.337-1.81 10.723-2.613 16.102h-1l-1-5-2 4c-.21-5.157.575-9.073 2-14 .606-2.801 1.12-5.617 1.625-8.437l.406-2.217q.488-2.673.969-5.346"/><path fill="#b73738" d="m360 266 2 3-4 2v4l3.313-.562C365 274 365 274 368 275l1-4v5l-2.937 1.438c-2.868 1.264-2.868 1.264-4.063 2.562-2.67.141-5.324.042-8 0-1.444-2.889-1.377-4.796-1-8 2.173-2.573 3.98-4.49 7-6"/><path fill="#b43736" d="M399 248h3c.86 9.664.86 9.664-2.187 13.625C397 264 397 264 394.25 264.438 392 264 392 264 391 263a110 110 0 0 1-.062-5.562l.027-3.067L391 252h3l1 7 3-1z"/><path fill="#272421" d="M265 241c3.417.355 5.732 2 8.5 3.938 2.763 1.925 5.45 3.627 8.5 5.062v-5h1l2 9h-3l-1 2-1-5-2.047.07-2.703.055-2.672.07c-2.692-.204-4.277-.83-6.578-2.195l4-3c-2.332-1.206-4.496-2.165-7-3z"/><path fill="#f1b9b5" d="M414 230v21h-1v-18h-4l.48 1.716c.528 2.319.724 4.458.836 6.83l.127 2.56.12 2.644.13 2.691q.159 3.28.307 6.559l-3 1-2-24c5-3 5-3 8-3"/><path fill="#262325" d="M415 228h2l1 9 3-1-3 14-1-2h-3q-.04-4.437-.062-8.875l-.026-2.55-.01-2.442-.016-2.254C414 230 414 230 415 228"/><path fill="#55504f" d="m400 190 2 1a418 418 0 0 1-2.875 3.5l-1.617 1.969L396 198h-2v2h-11l2-6 7-1v-2l2.875.063c3.032.163 3.032.163 5.125-1.063"/><path fill="#19212f" d="M361.848 158.902 368 159v2h3c1.125 3.75 1.125 3.75 0 6-1.625.054-3.25.093-4.875.125l-2.742.07C361 167 361 167 359 165c-.187-2.562-.187-2.562 0-5 1-1 1-1 2.848-1.098"/><path fill="#bcbcb4" d="M288 238h3c.196 2.083.381 4.166.563 6.25l.316 3.516c.103 2.753-.017 4.654-.879 7.234h-5a590 590 0 0 1-.125-6.25l-.07-3.516c.185-3.062.587-4.676 2.195-7.234"/><path fill="#989993" d="m292 189 3 1c-.11 3.126-.24 6.25-.375 9.375-.03.89-.062 1.779-.094 2.695l-.117 2.578-.095 2.38C294 209 294 209 292 211a126 126 0 0 0-2 6l-2-1c1.068-9.058 2.217-18.049 4-27"/><path fill="#151413" d="M275 140c2.625.375 2.625.375 5 1l-2 5h-2l-1 9-3-1c-2.143.39-2.143.39-4 1 .69-5.524 3.05-11.05 7-15"/><path fill="#babbb7" d="m304 263 1 2c2.58.69 2.58.69 5.563 1.125l3.066.508L316 267c-4.277 3.392-7.263 4.126-12.687 4.063l-3.012-.028L298 271l-2-4z"/><path fill="#cbcbce" d="M432 216c1.813 1.125 1.813 1.125 3 3 .188 3.188.188 3.188 0 6l-4-5c-4.462.51-7.088 1.522-10 5-.729 3.996-.93 7.944-1 12h-2c-.988-4.441-1.558-8.465-1-13 3.768-5.021 8.506-8.769 15-8"/><path fill="#242324" d="M396.563 132c2.437 1 2.437 1 3.625 3.5L401 138l2 1-10 2-1 3c-1.625-2.25-1.625-2.25-3-5 .625-2.125.625-2.125 2-4l1.313-1.812C394 132 394 132 396.563 132"/><path fill="#291210" d="M329 109c-1.195 3.586-2.66 4.388-5.915 6.135-3.58 1.485-7.187 1.8-11.022 2.115l-2.362.234c-1.899.187-3.8.353-5.701.516 3.735-3.218 7.994-4.891 12.5-6.75l2.3-.996 2.231-.926 2.018-.847c2.318-.571 3.71-.226 5.951.519"/><path fill="#111012" d="M355 284v5l-3.812 1.188c-4.833 1.587-9.338 3.687-13.903 5.921L335 297l-2-1q3.337-2.447 6.688-4.875l1.896-1.395c4.287-3.097 7.95-5.73 13.416-5.73"/><path fill="#0c100a" d="M385 272c-.164 2.293-.164 2.293-1 5-2.398 1.8-2.398 1.8-5.375 3.313l-2.96 1.55C373 283 373 283 370 283c.2-2.293.2-2.293 1-5 2.145-1.8 2.145-1.8 4.813-3.312l2.644-1.551C381 272 381 272 385 272"/><path fill="#2b292d" d="M313 286c2.398 2.398 2.343 3.333 2.625 6.625l.227 2.477L316 297l6-1c-2.068 2.797-3.144 3.027-6.687 3.688L312 300l2-5-3.312.063C307 295 307 295 304 294l2-6 4 2z"/><path fill="#d9abaa" d="M365 252h2c2.524 8.669 3.613 16.987 4 26a415 415 0 0 1-4.687 2l-2.637 1.125c-2.733.894-4.823 1.04-7.676.875l1.75-.812c2.29-1.124 2.29-1.124 4.25-2.75 2.068-1.487 3.548-1.902 6-2.438l-.184-1.766-.253-2.484-.282-2.73c-.196-2.105-.36-4.212-.5-6.32l-.219-3.262-.183-3.067L366 254l-2-1z"/><path fill="#dea7a7" d="M386 246c2 2 2 2 2 6h2v7l-4-2v-8c-5.232-.383-8.378.781-13 3v10c-1.952-3.904-2.506-6.722-3-11 10.709-5.926 10.709-5.926 16-5"/><path fill="#1b1c1f" d="m327 258 4 4c-1.062 2.438-1.062 2.438-3 5-3.437.625-3.437.625-7 1l-1.937 1.5c-3.159 2.297-6.206 2.179-10.063 2.5v-2l2.195-.953c7.765-3.402 7.765-3.402 14.805-8.047z"/><path fill="#d8483c" d="M425 181h2v5c2.867-.573 3.861-.861 6-3 1 1 1 1 1.098 2.848L434 192l-9 1c-1.125-8.625-1.125-8.625 0-12"/><path fill="#513b17" d="M411 139v2l6 1v2h4v3l2 1c-3.684-.56-6.14-1.54-9.25-3.562-4.679-2.67-8.435-3.495-13.75-2.438-2.876 1.117-5.318 2.44-8 4l1-5c5.01-1.978 12.884-4.558 18-2"/><path fill="#c32e2a" d="M374 253h3c1.067 3.462 1.102 6.64 1.063 10.25l-.028 3.266L378 269l3 1c-1.312 1.5-1.312 1.5-3 3h-3c-.883-4.518-1.106-8.775-1.062-13.375l.027-3.773z"/><path fill="#7e7e81" d="m353 252 1 3c-5.837 2.724-11.766 4.41-18 6v-5c4.655-1.837 8.983-2.392 13.926-2.754 2.062-.028 2.062-.028 3.074-1.246"/><path fill="#b64747" d="M409 233h4c.254 3.457.474 6.915.688 10.375l.22 2.984.166 2.852.175 2.634L414 254l-3 2c-1.65-1.65-1.225-3.637-1.316-5.91l-.127-2.998-.12-3.155-.13-3.166q-.16-3.885-.307-7.771"/><path fill="#da4e42" d="M429 150c1.75 1.375 1.75 1.375 3 3v3c-5.75-1.875-5.75-1.875-8-3v19l6 1-1 6-2-1 1-4-5-1-1-23c3.168-1.056 3.985-1.13 7 0"/><path fill="#4e230e" d="M269 280v2l4 2-2 1-1.687-.937c-3.154-1.45-5.888-1.195-9.313-1.063-1.425 4.276.35 6.478 2.188 10.43.934 2.955.656 4.627-.188 7.57-4.056-6.084-6.276-11.64-5-19 3.09-4.377 7.32-2.858 12-2"/><path fill="#302c2e" d="m435 193 6 2 1 5h-2l-2 4h-2l-1 2-1-5-3 1c1.199-3.083 2.477-6.063 4-9"/><path fill="#d6d6d4" d="M319.125 126.313C321 127 321 127 322 128q3.5.061 7 0l1-2v6c-3.402 2.094-6.053 2.18-10 2l1-2c-3.978-.733-3.978-.733-8-1 1.141-3.423 2.245-5.258 6.125-4.687"/><path fill="#676662" d="m406 172 2 1c-.379 2.645-.784 3.793-2.742 5.668l-2.133 1.52-2.117 1.542c-3.98 2.517-7.414 2.357-12.008 2.27l1-3 2 1v-3h3l1-2v2l2 1c2.61-.894 2.61-.894 5-2v-2h3v-2l-4 1v3l-3 1v-4a136 136 0 0 1 7-3"/><path fill="#403f46" d="M371 241h4v2q-4.624 1.779-9.25 3.555-3.723 1.433-7.437 2.89l-3.5 1.368-3.231 1.269C349 253 349 253 347 253c.5-1.812.5-1.812 2-4 2.695-1.22 5.185-2.136 8-3l3.383-1.04a854 854 0 0 1 6.957-2.093c2.554-.61 2.554-.61 3.66-1.867"/><path fill="#0e0d13" d="M361 145v1l-4.797 1.355c-1.579.462-3.151.947-4.719 1.446l-2.609.824c-.807.26-1.614.52-2.445.79-2.562.617-4.805.688-7.43.585v-3l-3-1c7.945-2.295 16.78-2.161 25-2"/><path fill="#b93c3c" d="M405 235h2v22l-3 1a3037 3037 0 0 1-.062-10.937l-.026-3.155-.01-2.998-.016-2.777C404 236 404 236 405 235"/><path fill="#efbb72" d="M419 148h5l1 2h-3v19l-3-1z"/><path fill="#f4c0b8" d="M324 268c5.4.6 5.4.6 7.594 2.063 2.115 2.914 2.5 6.148 3.094 9.625l.392 2.126c.317 1.727.62 3.456.92 5.186-4.773-.742-4.773-.742-6.812-3.062L328 282l1.563-1.687c1.64-2.223 1.64-2.223 1.562-4.875-1.005-2.84-1.005-2.84-4.687-4.25L323 270z"/><path fill="#f2aba8" d="M378 253h4v4h-2v4h5c-.187 2.375-.187 2.375-1 5-2.55 1.164-2.55 1.164-5 2a508 508 0 0 1-1.062-5.25l-.598-2.953c-.324-2.665-.195-4.286.66-6.797"/><path fill="#ae7b73" d="M441 179h4l2 8-4-1-3 8-3-1 1-1-2-1v-3l2-1a127 127 0 0 0 2-6z"/><path fill="#0e0d0d" d="M409 258c0 3.25 0 3.25-1 7-2.929 2.234-6.268 4-10 4-.273-2.293-.273-2.293 0-5 1.898-1.8 1.898-1.8 4.375-3.312l2.46-1.551C407 258 407 258 409 258"/><path fill="#9d9e9d" d="m424 241 3 2v2h2l-1 3-3 1-1.375 2.75c-1.747 3.495-3.766 5.623-6.625 8.25l-2-1 2-9 3 3h2l.184-2.371.253-3.066.247-3.06C423 242 423 242 424 241"/><path fill="#282723" d="M253 229c2.8 3.146 3.353 5.067 3.188 9.25l-.083 2.703L256 243l3-1a100 100 0 0 1 5 0c-1.193 2.386-2.144 2.837-4.437 4.125l-1.872 1.07C256 248 256 248 254 248l-1-4-2 4q.214-3.063.438-6.125c.08-1.137.162-2.274.246-3.445.293-3.184.747-6.285 1.316-9.43"/><path fill="#38383e" d="M363 146c-.375 2.438-.375 2.438-1 5-2.645 1.322-4.678 1.097-7.625 1.063l-3.04-.028L349 152v-3c5.01-3.006 8.327-3.293 14-3"/><path fill="#260d09" d="m344 109 3.55.754 3.762.808 3.801.817L358 112v1c-8.895.199-17.33.334-26-2l1-2c4.083-1.02 6.95-.908 11 0"/><path fill="#575853" d="M292 130c1 3.875 1 3.875 1 5l7 1v1c-13.633 2.112-13.633 2.112-20 3 3.025-5.546 6.209-7.61 12-10"/><path fill="#d59692" d="M350 276h3l1 4h6c-1.687 1.125-1.687 1.125-4 2-2.75-.875-2.75-.875-5-2l-.312 1.813c-.777 2.47-1.759 3.51-3.688 5.187l-2-1 2-3-6 1-1-2q1.935-.755 3.875-1.5l2.18-.844C348 279 348 279 350 279z"/><path fill="#3e2a14" d="M430 202c1.108 3.324 1.112 5.664 0 9-3.53 3.53-7.263 3.946-12.113 4.098l-3.2-.036-3.238-.027L409 215l-1-2 1.906.176c6.693.353 11.034-.664 16.094-5.176 1.61-1.943 2.762-3.782 4-6"/><path fill="#121317" d="m292 153 2 3-5 5 1.813-.5C293 160 293 160 296 160c-.312 2.375-.312 2.375-1 5l-3 2-4-2v-2h-3c.343-3.206.97-3.975 3.5-6.125L291 155z"/><path fill="#b66b1b" d="M270 308h13c-2 4-2 4-5 6-3.687-.375-3.687-.375-7-1z"/><path fill="#26211e" d="m406 177 1 2 2 1h-2l-.375 3.438L406 187l-2 1v-2h-9c1-3 1-3 2.777-4.098l2.16-.964c2.572-1.163 4.04-1.915 6.063-3.938"/><path fill="#444352" d="m320 167 3 1c2.333.04 4.667.044 7 0 0 3 0 3-1 6h-9l2-4h-4l1 3-3-1c1-3 1-3 4-5"/><path fill="#c96e44" d="M272 299h1l1 6 4 1 1-2 3 3-3-6c3.75-1.125 3.75-1.125 6 0v6c-5.307 1.427-9.539 2.4-15 1z"/><path fill="#6e4c1e" d="M387 169c7.728-.137 15.309.248 23 1v1q-3.592.758-7.187 1.5l-2.042.434c-3.646.747-7.047 1.24-10.771 1.066l1-3-4-1z"/><path fill="#161311" d="M425.188 253.313 427 254c-.615 6.523-.615 6.523-2.562 8.938-.475.35-.95.7-1.438 1.062l-3-2c-.411-3.223-.537-5.168 1.25-7.937 1.75-1.063 1.75-1.063 3.938-.75M418 261l2 2-2 1z"/><path fill="#23232a" d="M349 150v2c6.029-.512 12.02-1.07 18-2v2c-9.5 1.617-18.368 2.263-28 2l1-3c2.966-1.165 5.846-1.088 9-1"/><path fill="#e53e35" d="M430 173h2l2 6h-2v6l-5 1v-7h2z"/><path fill="#e8ad4e" d="M420 169h1c1.01 4.156 1.102 8.044 1.063 12.313l-.028 3.8L422 188h-2l-.332-1.977c-.933-5.143-2.016-9.442-4.668-14.023l4 1z"/><path fill="#e08a83" d="m434 177 1.75 1.063c2.648 1.103 3.582.739 6.25-.063-1.75 7.625-1.75 7.625-4 11l-2-1-1 2v-10l-3-1h2z"/><path fill="#56241e" d="m339 116 2 1-1 4c-6.324 1.659-9.984 2.578-16.187 0l-2.731-1.125L319 119v-2l2.852.797c6.676 1.995 6.676 1.995 13.414 1.512 1.798-1.178 1.798-1.178 3.734-3.309"/><path fill="#d57e42" d="m270 284 1.625 1.563c2.38 1.763 2.38 1.763 5.625 1.125L280 286l1 2h-4l-.812 2.25c-1.17 2.71-2.101 4.663-4.188 6.75-2.687.25-2.687.25-5 0l2-3h2c1.158-4.054.837-6.218-1-10"/><path fill="#34343a" d="M282 165v5l-2 1-1-4-1 6h-6c.188-2.875.188-2.875 1-6 3.258-1.937 5.15-2 9-2"/><path fill="#c13a3b" d="M386 249v1h-5v2h3l-1 4-1-3-2.312.563C377 254 377 254 374 253v5c-2-3-2-3-2.062-5 2.82-5.31 8.887-5.388 14.062-4"/><path fill="#f1b6b2" d="M393 249h5l1 9-4 2c-1.663-1.663-1.36-3.783-1.562-6.062l-.254-2.786z"/><path fill="#87857f" d="M284 235h1l2 21h-5v-2h3l-2-3c-.23-2.523-.23-2.523-.187-5.375l.019-2.836c.162-2.685.573-5.17 1.168-7.789"/><path fill="#1f1d19" d="M268.875 244.313 271 246l-2 2h-3v2l-9-1c6.94-6.94 6.94-6.94 11.875-4.687"/><path fill="#42434b" d="m395 232-1 2c-2.562.625-2.562.625-5 1v2c-1.412.676-2.83 1.34-4.25 2l-2.39 1.125C380 241 380 241 376 241v-2a742 742 0 0 1 6.688-3.5l1.896-1.012c3.62-1.858 6.33-2.926 10.416-2.488"/><path fill="#282824" d="M258 192h1l1 5h1q.079 2.374.125 4.75l.07 2.672c-.204 2.692-.83 4.277-2.195 6.578l-1-3-1 5h-1a585 585 0 0 1-.062-4.375l-.036-2.46C256 204 256 204 257 202c.226-1.704.409-3.413.563-5.125l.253-2.758z"/><path fill="#ad2e2b" d="M342 273c2.875-.125 2.875-.125 6 0 2 2 2 2 2 6l-9 2 1-3h3l-1.5-1.375C342 275 342 275 342 273"/><path fill="#1c1c1c" d="m381 202 2 2c2.318.72 4.651 1.391 7 2 .688 1.813.688 1.813 1 4-1.437 1.75-1.437 1.75-3 3-.553-2.076-1-3.844-1-6-3.625-.201-5.865.142-9 2l-1-6c1.875-.625 1.875-.625 4-1"/><path fill="#39383a" d="M273 157c1.282 3.845.396 5.252-1 9l-1 3.313C270 172 270 172 268 173c-.386-9.855-.386-9.855 2-14z"/><path fill="#212c3e" d="m378 150 4 2v6h-7v-6h3z"/><path fill="#d19740" d="M414 200c.883 2.467 1.131 3.639.223 6.14L411 212h9c-2 2-2 2-3.875 2.23l-2.125-.042-2.125-.02C410 214 410 214 408 213c.483-5.155 3.186-8.816 6-13"/><path fill="#aa201d" d="M311 297v2h-12l-2-4c5.036-1.679 9.272-.086 14 2"/><path fill="#343435" d="M396 272a984 984 0 0 1-4.875 3l-2.742 1.688C386 278 386 278 384 278l-1 3-7 1c3.144-3.483 6.445-5.588 10.563-7.812l3.44-1.895C393 271 393 271 396 272"/><path fill="#495060" d="M368 155h6l2 10h-2l-1-4h-5c-1.125-3.75-1.125-3.75 0-6"/><path fill="#281717" d="m363 108 9 3v1c-6.618 2.463-13.004 2.19-20 2v-1l12-2z"/><path fill="#362322" d="M298 285c2.813 1.5 2.813 1.5 5 3v1h-13l1-4c2.752-1.376 4.062-.82 7 0"/><path fill="#eeaca5" d="M320 275h6l-1 5-.437 2.625C324 285 324 285 322 288c-2.286-8.429-2.286-8.429-2-13"/><path fill="#1f1b22" d="m341 291-7 5 1 2c-3.75 1.125-3.75 1.125-6 0 .5-2.875.5-2.875 2-6 3.283-1.565 6.656-2.672 10-1"/><path fill="#ba140f" d="M289.688 291.688 292 292v3h-3v3l2 1-6 2c-1.161-2.85-1.066-3.84.125-6.75C287 292 287 292 289.688 291.688"/><path fill="#d29e4a" d="M387 160h1v8l2.168-.035c7.661-.07 15.203.346 22.832 1.035l1 3-3.113-.402c-7.952-1.017-15.894-1.954-23.887-2.598z"/><path fill="#0c0b11" d="M329 149v3c-3.015 1.005-5.042 1.103-8.187 1.063l-2.731-.028L316 153v-3c4.386-.702 8.558-1.108 13-1"/><path fill="#b5413b" d="m330 273 2 1c-.507 3.719-1.116 6.735-3 10h-2v-3l-2 1v5l-2-2c.356-3.38 1.357-6.043 3-9h2v3h2z"/><path fill="#f6b9b5" d="M359 269c2.625.375 2.625.375 5 1l-1 5-5 1c-.625-2.375-.625-2.375-1-5z"/><path fill="#b62523" d="M321 271c6.152-.098 6.152-.098 8 0 1 1 1 1 1.063 4.563L330 279h-2v-3h-2v-2h-6z"/><path fill="#4a3e3e" d="m367 252-7 2 1 11-5 1 1-3.125c.972-3.36 1.171-6.366 1-9.875 3.426-1.618 5.38-2.34 9-1"/><path fill="#2a292e" d="M349 250c-1.581 2.58-2.466 3.817-5.375 4.813-2.758.196-4.956-.127-7.625-.813 2.273-2.71 3.596-3.893 7.063-4.812C346 249 346 249 349 250"/><path fill="#dddedc" d="M429.625 215.375c2.804.738 3.818 1.167 5.375 3.625.188 3.188.188 3.188 0 6l-4-5c-3.344.557-6.033 1.352-9 3 4.063-6.777 4.063-6.777 7.625-7.625"/><path fill="#46413c" d="m399 187-1 2c-2.322.407-4.657.744-7 1v2l-7 1c4.12-6.592 7.487-6.788 15-6"/><path fill="#1d1b1a" d="M403 126c3.127 1.381 5.2 2.979 7.563 5.438l1.753 1.808L414 135a797 797 0 0 0 3 3c-3.375-.75-3.375-.75-7-2-1.187-2-1.187-2-2-4l-2.062-1c-1.938-1-1.938-1-2.688-3.125z"/><path fill="#8d3623" d="M262 296h3c2.5 3.333 3 4.733 3 9l-3 1-1-3h-2z"/><path fill="#914d4c" d="m296 296 2.063.875c3.266 1.251 6.565 2.2 9.937 3.125v1q-2.374.293-4.75.563l-2.672.316c-3.58.168-6.2-.753-9.578-1.879l5-1z"/><path fill="#2e3034" d="M351 291c-1 3-1 3-3.18 4.203l-2.695 1.047-2.68 1.078C340 298 340 298 337 297c4.74-3.95 7.704-6.35 14-6"/><path fill="#9b3028" d="m285 288 1 1c2.183.235 4.372.414 6.563.563l3.628.253L299 290v1c-.585-.01-1.17-.02-1.772-.032-2.66-.041-5.319-.067-7.978-.093-.92-.017-1.84-.034-2.79-.05l-2.694-.02-2.476-.032c-2.509.249-4.124.97-6.29 2.227.75-2.437.75-2.437 2-5 2.893-1.35 5.03-1.024 8 0"/><path fill="#9a5d5f" d="m300 280 3 1v4l3 1-2 3-6-3c0-4 0-4 2-6"/><path fill="#312424" d="m371 263 2 1c.414 2.941.414 2.941.625 6.563l.227 3.628L374 277l-3 1q-.29-3.469-.562-6.937l-.317-3.903L370 264z"/><path fill="#bf3c38" d="m366 254 1 11c-4-2-4-2-4.828-3.945L361 255c3-1 3-1 5-1"/><path fill="#191716" d="M431 243c1 2 1 2 .363 4.129l-1.05 2.434-1.012 2.44C428 254 428 254 425.855 254.778L424 255c-.687-1.75-.687-1.75-1-4 1.313-2.25 1.313-2.25 3-4h2c1.637-1.96 1.637-1.96 3-4"/><path fill="#33333c" d="m386 237 2 1-1.5 1.75c-1.87 2.354-1.87 2.354-1.5 6.25-1.937-.375-1.937-.375-4-1l-1-2h-5v-2l-2-1 3.125.188c4.127-.2 6.288-1.27 9.875-3.188"/><path fill="#92938e" d="m292 189 3 1-1 15-1-2h-2c-.185-9.41-.185-9.41 1-14"/><path fill="#858783" d="m307 178 2 1c1.817 5.755.234 11.269-1 17h-1v-7h-1c-.143-7.429-.143-7.429 1-11"/><path fill="#2a2b25" d="M312 123c-6.685 6.924-6.685 6.924-11.25 7.188L298 130c7.114-7.306 7.114-7.306 14-7"/><path fill="#1c1417" d="m345 287 2 1-1 2 2 1a891 891 0 0 1-6.375 3.063l-3.586 1.722L335 297l-2-1z"/><path fill="#cb5d59" d="M342 273v2l3 1v2l-3 1v3c-2.993-.998-3.948-1.752-6-4 1.127-3.38 2.212-5 6-5"/><path fill="#a5a7a7" d="M409 179c4.875.875 4.875.875 6 2q.062 3.5 0 7l-5 1c0-2 0-2 2-4v-2h-2l-1 2z"/><path fill="#bebdba" d="M401 175h-2l1 3h2v-3l4-1v2c-2.76 2.453-5.496 4.757-9 6-2.25-.375-2.25-.375-4-1l3-2v-2l-2-1c3.625-2.125 3.625-2.125 7-1"/><path fill="#802a27" d="M432 154c3.8 3.257 6.48 7.226 8 12-.395 2.25-.395 2.25-1 4l-1-4h-2v-2h-2c-1.316-3.62-2-6.096-2-10"/><path fill="#383937" d="M314 123c4.97.514 9.29 1.234 14 3l-1 3c-7.429-1-7.429-1-11-2v-3z"/><path fill="#222424" d="m337 295 2 1-1 1 2 2a895 895 0 0 1-4.812 1.5l-2.708.844C330 302 330 302 327 302v-3c5.75-1 5.75-1 8-1v-2z"/><path fill="#4a4540" d="M282 245h1l2 9h-3l-1 2-1-5-1.812-.25c-2.785-.955-3.621-2.321-5.188-4.75 3.083 1.199 6.063 2.477 9 4z"/><path fill="#2d1f20" d="M414 248h3c.25 6.625.25 6.625-2 10-3.125.188-3.125.188-6 0l1.938-1.625c2.447-2.819 2.73-4.714 3.062-8.375"/><path fill="#a8a6a2" d="m400 187 1 3c-3 2-3 2-6.187 1.625L392 191l1 3c-2.875.625-2.875.625-6 1l-2-2 6-1v-2z"/><path fill="#a2a29b" d="M288 228c.25 1.58.474 3.164.688 4.75.19 1.323.19 1.323.386 2.672-.09 3.135-1 4.296-3.074 6.578-1-1-1-1-1.098-3.723l.036-3.34.027-3.347L285 229c2-1 2-1 3-1"/><path fill="#1a1a18" d="M442 210c1.238 3.715.567 4.844-.812 8.438l-1.083 2.87A80 80 0 0 1 437 228a888 888 0 0 1-.062-5.375l-.036-3.023C437 217 437 217 438 215h2z"/><path fill="#151210" d="M432 201h2c.883 2.467 1.131 3.639.223 6.14l-1.16 2.11-1.153 2.14L431 213l-3-1 2-1c.429-2.093.429-2.093.563-4.5.34-4.404.34-4.404 1.437-5.5"/><path fill="#e8aa50" d="M434 194c-.503 4.401-2.088 6.712-5 10v-7h-3v-2c2.892-.826 4.887-1 8-1"/><path fill="#473733" d="M446 182c2 2 2 2 2.125 4.625L448 189h-3v2l-5 2 2-9 1 2 3-1z"/><path fill="#d0d0c7" d="M306 120c6.412-.356 12.045.47 18 3l1 2-2.379-.402c-5.533-.93-11.062-1.84-16.621-2.598z"/><path fill="#171518" d="m375 275 2 1-1 3 3 1c-5.625 3-5.625 3-9 3 .35-3.242.562-4.615 3.063-6.812z"/><path fill="#d4d5cf" d="m305 262 8 1 1 4-10-1z"/><path fill="#b0afab" d="m318 260-1 3c-4.161.082-7.947-.018-12-1l1-2c4.3-.91 7.75-1.16 12 0"/><path fill="#232425" d="m406 211 1 3c-1.477 2.594-1.477 2.594-3.625 5.5l-2.102 2.906c-2.257 2.575-4.254 4.026-7.273 5.594l2-4h2l.813-2.25c1.14-2.64 2.28-4.606 4.187-6.75h2l-1-3z"/><path fill="#7b653b" d="m391 145 2 2-1.875 3.188c-2.855 5.62-3.407 11.618-4.125 17.812h-1c-.433-8.572.154-15.73 5-23"/><path fill="#d7d6d1" d="M327 258c-.312 1.875-.312 1.875-1 4l-3 2-3-1c-.687-2.062-.687-2.062-1-4 2.709-1.354 5.01-1.065 8-1"/><path fill="#272329" d="m356 260 2 1c-1.625 5.75-1.625 5.75-5 8l-.375-1.937L352 265l-2-1z"/><path fill="#383632" d="M267 251h2v2h2v2h9l-1 2q-2.124.079-4.25.125l-2.39.07c-2.567-.212-4.152-.908-6.36-2.195z"/><path fill="#272526" d="m440 205 1 4 3-1c0 2 0 2-1.437 3.5L441 213l-1 2h-2l-2 4c.6-3.683 1.248-7.345 2-11h2z"/><path fill="#703736" d="M444 193h3c.082 4.161-.018 7.947-1 12h-2l-1 2z"/><path fill="#231b18" d="m435 193 3 1-2 9h-2v-2l-3 1c1.199-3.083 2.477-6.063 4-9"/><path fill="#dcab50" d="M412.563 142.5 415 144c-3.314 1.105-3.8.823-7 0a145 145 0 0 0-6.25-.062l-3.266.027L396 144c2.7-5.402 12.065-3.394 16.563-1.5"/><path fill="#5d5f5d" d="M383 206c2.438.375 2.438.375 5 1l1 2h-2l2 2 1 3-4 3-2-1v-2l2-1-3-2h3c-.776-3.075-.776-3.075-3-5"/><path fill="#5b5553" d="m385 194 5 1 1 3 2 2h-10z"/><path fill="#363745" d="M284 167h3v2l2 1-3 1-1 2h7l1-2v2l2 1h-12l-1-2c.938-2.625.938-2.625 2-5"/><path fill="#c3c4c0" d="M318.875 126.25c2.406.85 4.77 1.769 7.125 2.75-3.062 1.784-5.22 2.229-8.75 2.125l-2.422-.055L313 131c1.074-3.223 2.12-5.25 5.875-4.75"/><path fill="#331a11" d="m292 305 2 1c-1.666 2.752-2.656 3.867-5.7 5.047l-2.988.703-3.011.734L280 313l3-6h8z"/><path fill="#a93a37" d="M313 273h3l-.125 2.875c-.225 3.227-.225 3.227 2.125 5.125.195 2.164.195 2.164.125 4.625l-.055 2.477L318 290c-4.088-4.088-4.301-11.41-5-17"/><path fill="#3c210c" d="M269 280v2l4 2-2 1-1.828-.93c-2.517-1.24-4.14-1.277-6.922-1.195l-2.422.055L258 283l1-3c3.283-1.642 6.425-.519 10 0"/><path fill="#575552" d="m395 177 1 2 2 1-1 1h2v2c-3.473 1.158-6.36 1.069-10 1l1-3 2 1v-3h3z"/><path fill="#404340" d="m387 168 1 5-10-1v-3c3.058-.544 5.888-1 9-1"/><path fill="#46454b" d="M381 126h2c-.576 4.755-2.55 7.97-5 12l-3-1a1204 1204 0 0 1 1.875-3.812l1.055-2.145C379 129 379 129 381 126"/><path fill="#433c3b" d="M314 288c1.858 3.135 2.201 5.375 2 9l6-1c-2.068 2.797-3.144 3.027-6.687 3.688L312 300l2-5-2-1h2z"/><path fill="#b5817f" d="M303 294q2.188-.04 4.375-.062l2.46-.036C312 294 312 294 314 295c-.875 3.875-.875 3.875-2 5-1.666.04-3.334.043-5 0l4-1v-2l-2.312-.375C306 296 306 296 303 294"/><path fill="#af5b0a" d="m260 290 11 1v3c-3.806 1.464-6.347.623-10-1z"/><path fill="#e7c6c1" d="m323 286 8 6-2 2h-4c-1.765-3.088-2-4.233-2-8"/><path fill="#262a28" d="m375 281 3 2c-4.217 2.9-8.069 3.913-13 5 2.453-4.185 5.454-5.539 10-7"/><path fill="#fcc9c4" d="M385 261c-.187 2.375-.187 2.375-1 5-2.562 1.313-2.562 1.313-5 2v-6c3-1 3-1 6-1"/><path fill="#a1a29e" d="M304 203h1c.185 9.41.185 9.41-1 14l-1-4h-2v-5h2z"/><path fill="#e6332e" d="M430 156h2c1.62 2.572 2.044 3.677 1.625 6.75L433 165l-4-2c-.043-2-.04-4 0-6z"/><path fill="#e1af56" d="m394 144 2 1-1 4h-2l-.586 1.934-.789 2.504-.773 2.496C390 158 390 158 388 159c.385-6.165 2.47-9.986 6-15"/><path fill="#1f110c" d="m274 280 4 2v3l2 1-6 2-2-4h2l-1-3z"/><path fill="#d0a09d" d="M343.25 271.313 346 272v1l-3.312.813c-4.066 1.216-4.066 1.216-6.688 4.187-.722 2.606-.722 2.606-1 5h-1l-1-9h3l1.813-1.562C340 271 340 271 343.25 271.313"/><path fill="#ab3c3a" d="m360 266 2 3-1.875.75c-2.476 1.456-3.076 2.628-4.125 5.25l-1-1-2 4c-.312-2.687-.312-2.687 0-6 2.173-2.573 3.98-4.49 7-6"/><path fill="#b6282b" d="M391 252h3l.438 3.313c.445 3.618.445 3.618 1.562 6.687h-4z"/><path fill="#c52323" d="M381 250h5v9l-5 1 .938-2.312A111 111 0 0 0 384 252h-3z"/><path fill="#d4d4d3" d="M426 227h4v6h-6z"/><path fill="#353630" d="M258 203h1c.369 12.67.369 12.67-2 18h-1c-.233-6.283.595-11.88 2-18"/><path fill="#492b07" d="m416 194 1 3a93 93 0 0 1-4.437 7.188l-1.315 1.982A628 628 0 0 1 408 211l-1-3a83 83 0 0 1 3-4 88 88 0 0 0 2-5h2v-3h2z"/><path fill="#e1a941" d="m417 194 1 2h2v2l6-1v3h-11z"/><path fill="#2e3d4e" d="M371 161h2l1 4h2v2h5v1h-13l3-1z"/><path fill="#451713" d="M329 109c-1.476 4.427-3.9 4.914-8 7h-2v-2l4-2-2-2c3.067-1.862 4.597-2.215 8-1"/><path fill="#93393a" d="M347 108c5.152-.09 9.92.153 15 1v2c-10.558.369-10.558.369-15-2z"/><path fill="#9f2011" d="M273 298h2l1 3h2v5l-3 1-2-1z"/><path fill="#b43527" d="m281 298 4 2-3 1-2 1 2 2v3l-3-1-1-5-3 1v-3l6 1z"/><path fill="#bf443e" d="m378 265 1 3 6-3 3 2-8 5c-2-2-2-2-2.125-4.625z"/><path fill="#2a292a" d="m275 259 13 1c-4.248 2.124-7.168 2.238-11.75 2.125l-2.113-.027c-1.713-.024-3.425-.06-5.137-.098v-1h6z"/><path fill="#453c30" d="m415 183 1 4h2c1.125 4.75 1.125 4.75 0 7h-2l-1-2h-3l2-1c.465-1.895.465-1.895.625-4.062z"/><path fill="#e48078" d="m423 173 5 1-1 7h-2l-1 3z"/><path fill="#969792" d="m295 175 3 1c-.114 1.46-.242 2.917-.375 4.375-.07.812-.14 1.624-.21 2.46C297 185 297 185 295 187a431 431 0 0 1-.562-4.312l-.317-2.426C294 178 294 178 295 175"/><path fill="#b2bdcb" d="M382 159c-.812 2.938-.812 2.938-2 6l-3 1-2-2v-3c4.75-2 4.75-2 7-2"/><path fill="#38383d" d="M312 154h8l-1 2c-2.54.476-5 .84-7.562 1.125l-2.155.262q-2.64.316-5.283.613v-2h8z"/><path fill="#a32e26" d="m336 108-3 2v3h-7l2-1-1-3c2.957-1.478 5.742-1.06 9-1"/><path fill="#d6775f" d="M285 301v6l-7 1 4-1-3-6c3-1 3-1 6 0"/><path fill="#c42821" d="m302 291 1 3a419 419 0 0 1-4.375 2.063l-2.46 1.16L294 298l-2-1c5.846-6 5.846-6 10-6"/><path fill="#553712" d="m425 209 1 2c-1.309 2.618-2.277 2.968-5 4-3.016.195-3.016.195-6.25.125l-3.266-.055L409 215l-1-2 1.941.14c6.35.266 9.834-.506 15.059-4.14"/><path fill="#8f8b88" d="m384 194 2 3h-2v2h-7c.688-1.937.688-1.937 2-4 2.625-.75 2.625-.75 5-1"/><path fill="#bdbecd" d="m290 167 2 2 2-2v2h2v-2l2 1-2 5h-6z"/><path fill="#452d0f" d="M403 139v2l-1.898.84-2.477 1.097-2.46 1.09q-2.103.944-4.165 1.973l1-5c3.62-1.316 6.096-2 10-2"/><path fill="#c1443a" d="m328 114-4 1v2l9 2v2l-12-3v-3c3.625-2.125 3.625-2.125 7-1"/><path fill="#a16a32" d="M279 308h4c-1.37 3.161-1.99 3.993-5 6-3.625-.25-3.625-.25-7-1l-1-2 9 1z"/><path fill="#de7e17" d="M260 285h3v2l7 1v2h-8v-2h-2z"/><path fill="#ac2e2a" d="m317 272 1.688.438c2.426.59 4.861 1.085 7.312 1.562v1h-6l1 7h-2l-.375-2.937L318 276l-2-1z"/><path fill="#362f2e" d="m333 266-1 4-3.687-.562c-3.343-.428-6.033-.36-9.313.562 2-3 2-3 3.625-3.687 3.475-.458 6.87-.371 10.375-.313"/><path fill="#161615" d="M425 234h4v5c-3 1-3 1-6 1 .875-4.875.875-4.875 2-6"/><path fill="#abaca6" d="M296 190h1c.125 6.75.125 6.75-1 9-.225 1.537-.408 3.08-.562 4.625l-.254 2.477L295 208h-1a573 573 0 0 1-.125-6.187l-.07-3.481c.19-3.25.801-5.419 2.195-8.332"/><path fill="#292a29" d="m406 177 1 2 2 1h-2l-.375 3.438L406 187l-2 1-.437-2.312c-.526-2.77-.526-2.77-1.563-5.688z"/><path fill="#a7a6b4" d="M317 167c2.063.438 2.063.438 4 1l-4 2 1 2v-2h4l-2 4-5-1c.875-4.875.875-4.875 2-6"/><path fill="#bb7977" d="m288 301 5 1c-.875 4.875-.875 4.875-2 6-2 .04-4 .043-6 0v-1h5v-3l-4 1z"/><path fill="#e6b9b7" d="m370 275 1 3a415 415 0 0 1-4.687 2l-2.637 1.125c-2.733.894-4.823 1.04-7.676.875l1.75-.812c2.273-1.11 2.273-1.11 4.125-2.688 2.574-1.817 5.119-2.612 8.125-3.5"/><path fill="#4a3839" d="M414 235h1l.586 6.055c.278 2.172.278 2.172 2.414 3.945.125 2.625.125 2.625 0 5l-1-2h-3z"/><path fill="#bebdca" d="M306 167h2l1 2 1-2h2l-1 6h-3l-1-2-1 2-2-1z"/><path fill="#606975" d="m381 161 1 2 2 1 1 2-1 2-8-1c1-2 1-2 4-3z"/><path fill="#1c1a13" d="m417 138 5 5 2.313 2.188C426 147 426 147 426 149l-5-2v-3h-3z"/><path fill="#444540" d="m312 129 1 2 2.813-.625C319 130 319 130 322 132c-2.341 1.45-3.58 2.043-6.36 1.758l-2.39-.633-2.422-.617L309 132l3-1z"/><path fill="#af2414" d="M277 291c1.097 3.29.8 4.713 0 8h-5c.35-3.242.562-4.615 3.063-6.812z"/><path fill="#a46f49" d="m270 284 1.625 1.563c2.38 1.763 2.38 1.763 5.625 1.125L280 286l1 2h-4l-1 2c-2.062 1.125-2.062 1.125-4 2l-.437-2.312c-.526-2.77-.526-2.77-1.563-5.688"/><path fill="#282121" d="m318 267 1 3c-3.62 1.316-6.096 2-10 2v-2c6.75-3 6.75-3 9-3"/><path fill="#737175" d="M339.563 254.938 342 255v3h-2v2l-4 1a100 100 0 0 1 0-5c1-1 1-1 3.563-1.062"/><path fill="#dcdbd5" d="M289 243h1c.143 8.571.143 8.571-1 12h-2c-.178-4.548.002-7.88 2-12"/><path fill="#80817d" d="M299 238c1.073 3.272.893 5.43.063 8.75l-.59 2.422L298 251h-1l-2-9 4-2z"/><path fill="#2d2a28" d="M435 225h2c-.514 4.97-1.234 9.29-3 14h-1c-.189-9.623-.189-9.623 2-14"/><path fill="#793732" d="m440 170 3 4 1.75 2.063L446 178l-1 3v-2l-5-1z"/><path fill="#bdb7af" d="m389 170 3 1-2 3 2 1h-15v-1l2.117-.113 2.758-.2 2.742-.175c2.745-.3 2.745-.3 4.383-3.512"/><path fill="#25262b" d="M280 163h8l1 3h-10z"/><path fill="#944e48" d="M425 149c3.24.432 5.004 1.405 7 4v3c-3.255-.349-4.019-1.021-6.25-3.562L424 150z"/><path fill="#282623" d="m290 127 2 4-7 3v-3c2.5-2.187 2.5-2.187 5-4"/><path fill="#1e1e1e" d="m393 273 2 1c-2.476 2.653-4.59 4.68-8 6h-3v-2a432 432 0 0 1 4.375-2.562l2.46-1.442z"/><path fill="#212121" d="M297 270c1.532.252 3.053.576 4.563.938l2.503.59L306 272l-1 2h-7l-1 2a88 88 0 0 1-1-5z"/><path fill="#d3a0a1" d="M405 233c0 2.798-.372 4.98-1 7.688l-.562 2.449L403 245h-1l-1-10z"/><path fill="#9e9b97" d="M406 172c-4.477 2.985-8.638 4-14 4v-2c4.873-1.591 8.808-2.212 14-2"/><path fill="#323047" d="m338 167 4 1-1 5-6-2 2-1z"/><path fill="#626266" d="M273 167h4l-1 5-4 1z"/><path fill="#1e2d40" d="M366 159h2v2h3c1.125 3.75 1.125 3.75 0 6l-3-1v-4h-2z"/><path fill="#08080d" d="M336 147h8v4h-5v-3z"/><path fill="#787872" d="M292 130c1 3.875 1 3.875 1 5l-10 2c2.548-5.097 3.894-5.109 9-7"/><path fill="#524f49" d="m319 119 5 1v2l5 2c-2.17.955-3.563 1.144-5.824.398-1.744-.757-3.462-1.574-5.176-2.398z"/><path fill="#ab4541" d="m332 286 4 4c-3.25.75-3.25.75-7 1-2.437-1.937-2.437-1.937-4-4l7 2z"/><path fill="#3e3d40" d="M300 271q2.188-.04 4.375-.062l2.46-.036C309 271 309 271 311 272l-1 5-1-2c-2.113-.907-2.113-.907-4.562-1.625-.827-.26-1.653-.52-2.504-.79L300 272z"/><path fill="#2b1f1e" d="m407 258 1 3-2 1-1 2c-2.322.407-4.657.744-7 1 2.808-2.964 5.183-5.445 9-7"/><path fill="#c7c8c2" d="m291 216 5 1-2 1v3h-2v6h-1z"/><path fill="#5f615f" d="M380 208h2l-.062 2.875c-.164 3.032-.164 3.032 1.062 5.125l3 2c-4.75-.75-4.75-.75-7-3-.187-3.062-.187-3.062 0-6z"/><path fill="#501914" d="m339 116 2 1-1 4-9 1c2.615-2.12 5.196-4.13 8-6"/><path fill="#c8453c" d="M333 112c6.75.75 6.75.75 9 3l-6 4-2-1 3-1v-4z"/><path fill="#a03c3c" d="m347 282 2 1c-1.625 2.5-1.625 2.5-4 5-3.25.313-3.25.313-6 0l3-1v-3c2.375-1.062 2.375-1.062 5-2"/><path fill="#b8221d" d="m355 271 .313 1.938L356 275l3 1-1 3h-4z"/><path fill="#c52020" d="M374 253h3v10l-2 1z"/><path fill="#938e8b" d="M274 251h6v4h-5z"/><path fill="#312927" d="M265 241c3.489.36 6.09 2.141 9 4l-2 2-2.812-1.437c-3.1-1.608-3.1-1.608-6.188-2.563z"/><path fill="#231b0d" d="M415 179c2 1 2 1 4 3 .37 2.754.183 5.204 0 8l-1-3h-2z"/><path fill="#373649" d="M322 167a196 196 0 0 1 4.375-.187l2.46-.106L331 167l2 3c-1.875.625-1.875.625-4 1l-2-2c-2.584-.167-2.584-.167-5 0zm11 1 2 1Z"/><path fill="#f54c43" d="M427 155h3l1 4h-2l1 6c-2.479-1.94-2.997-2.986-3.75-6.125L426 156z"/><path fill="#1a1a1c" d="m281 150 4 2c-1.392 2.784-3.156 2.979-6 4 0-4 0-4 2-6"/><path fill="#2a2527" d="M340 121c-2 3-2 3-5.125 3.688L332 125v-3c2.709-1.354 5.01-1.065 8-1"/><path fill="#1e1718" d="m265 311 3 1v2l4 1-3 4c-4-5.75-4-5.75-4-8"/><path fill="#a06438" d="m272 304-2 7c-2-1.312-2-1.312-4-3v-3c2.076-.553 3.844-1 6-1"/><path fill="#392825" d="m306 288 3 1v5l-2 1-3-1z"/><path fill="#131114" d="m293 280 3 1-1 3c-2.562 1.188-2.562 1.188-5 2 .375-2.437.375-2.437 1-5z"/><path fill="#37292d" d="M305.063 277.313C307 278 307 278 308 280l-1.937.375L304 281l-1 2-2-5c2-1 2-1 4.063-.687"/><path fill="#261d1b" d="M260.563 241.938 264 242c-1.52 3.039-3.98 3.644-7 5h-2c1.126-4.985 1.126-4.985 5.563-5.062"/><path fill="#de9f42" d="m425 204 4 1c-4.43 5.785-4.43 5.785-7.312 6.875L420 212v-2l3-1c1.219-2.504 1.219-2.504 2-5"/><path fill="#959691" d="m305 187 3 1-1 9h-3z"/><path fill="#e1a13c" d="M419 171h1c1.03 4.534 1.178 5.645-1 10l-4-9 4 1z"/><path fill="#453d2f" d="m392 170 7 2c-3.135 1.858-5.375 2.201-9 2z"/><path fill="#7a7b84" d="m279 167 2 1 1-1 2 1-2 5h-4z"/><path fill="#444342" d="m262 167 3 1-1 5h-4c.875-4.875.875-4.875 2-6"/><path fill="#bbbab2" d="m303 122 1 3c-1.187 1.563-1.187 1.563-3 3-2.687-.312-2.687-.312-5-1 2.363-2.526 3.665-3.888 7-5"/><path fill="#ae581b" d="M268 298h4v6l-4 2v-4h2v-3z"/><path fill="#ad1c1b" d="M320 282h1l1 11-3-1-1-6h2z"/><path fill="#eab5b3" d="M343 271c3.146-.262 4.618-.248 7.313 1.5L352 274l1-2-1 6-4.395-3.71c-1.47-1.182-3.035-2.244-4.605-3.29"/><path fill="#e0b5b2" d="M324 268c5.538.492 5.538.492 7.875 3.063L333 273c-3.867 0-6.509-1.42-10-3z"/><path fill="#d1d1cd" d="m297 266 3.813.375 2.144.21C305 267 305 267 308 269h-12z"/><path fill="#fac5c3" d="m387 251 3 1v7l-4-2z"/><path fill="#373837" d="M434 215c2.354 2.55 2.983 3.71 3.188 7.25L437 225h-2l-.937-3.375c-.886-3.42-.886-3.42-2.063-5.625z"/><path fill="#adaea8" d="m300 209 1 4h2c-.375 2.938-.375 2.938-1 6l-2 1z"/><path fill="#18181a" d="M435 208h3c-.75 6.75-.75 6.75-3 9z"/><path fill="#e4bd92" d="M422 186c.625 1.813.625 1.813 1 4l-2 3h-2l-1 3 1-7 3-1z"/><path fill="#eb6355" d="m432 183 2 1-1 4-2-1v3l-3-1v-3l3-1z"/><path fill="#221205" d="M282 314c-3.644 2.43-5.712 2.162-10 2l-1-2c7.429-1.286 7.429-1.286 11 0"/><path fill="#c66a04" d="M262 284c2.313-.25 2.313-.25 5 0 1.813 2 1.813 2 3 4l-7-1z"/><path fill="#27211e" d="m263 244 2 3-3 1-1 2-4-2z"/><path fill="#2f2e2f" d="m416 239 4 1-2 5-3-2z"/><path fill="#1c1e1e" d="M378 215a56.5 56.5 0 0 1 7 4l-2 4c-1.5-1.312-1.5-1.312-3-3v-3h-2z"/><path fill="#2a2b29" d="m383 205 7 1c.688 1.813.688 1.813 1 4-1.437 1.75-1.437 1.75-3 3-.553-2.076-1-3.844-1-6z"/><path fill="#c7826e" d="M423 188h2v7l-2 1v-3l-3 2c1.875-4.75 1.875-4.75 3-7"/><path fill="#535b69" d="M383 156h2v9l-2-1c-.95-3.284-1.101-4.697 0-8"/><path fill="#161617" d="M285 140h2c-1.485 4.704-1.485 4.704-4.062 6.188L281 147l-1 2c.573-3.87 2.39-6.152 5-9"/><path fill="#333" d="M312 138h8v3c-3.75 1.125-3.75 1.125-6 0v-2z"/><path fill="#362e2b" d="m303 118 1 3c-1.264.7-2.537 1.384-3.812 2.063l-2.145 1.16C296 125 296 125 293 124z"/><path fill="#c32c26" d="M279 290h6c-1.25 2-1.25 2-3 4h-4z"/><path fill="#463c3b" d="M368 280c-1.904 1.904-3.334 2.935-6.047 3.2-1.985-.011-3.97-.1-5.953-.2v-1q2.15-.796 4.313-1.562l2.425-.88C365 279 365 279 368 280"/><path fill="#202024" d="m290 270-1 4-5 1-1-2c4.75-3 4.75-3 7-3"/><path fill="#b4b4af" d="M304 268v3h-6l-1-2c2.463-1.231 4.28-1.072 7-1"/><path fill="#7c7c76" d="M294 248c2.624 3.061 3 3.732 3 8h-4z"/><path fill="#262424" d="m425 247 3 1c-1.074 2.915-1.778 4.778-4 7-.93-2.606-1.15-3.642-.062-6.25z"/><path fill="#8f908b" d="M295 243c2.29 3.435 2.178 4.985 2 9l-2 1c-1.125-7.75-1.125-7.75 0-10"/><path fill="#100f0e" d="M284 222c2 2 2 2 2.125 4.625L286 229h-4a85 85 0 0 1 2-7"/><path fill="#8b8a9b" d="m326 168 4 1-1 5-4-1 2-1-2-1z"/><path fill="#2d3a4f" d="m374 155 1 3h6l-1 2c-3.062.625-3.062.625-6 1z"/><path fill="#302f30" d="m277 158 8 1c-2.36 2.097-3.546 2.97-6.75 3.188L276 162z"/><path fill="#1e1a1a" d="m270 149 3 1-1 4-4 1c.875-4.875.875-4.875 2-6"/><path fill="#dfe0da" d="M322 130h4v4h-6z"/><path fill="#2e2c32" d="m386 123 3 1-6 7-1-2z"/><path fill="#c8756c" d="m296 296 5 4c-6.625 1.125-6.625 1.125-10 0l5-1z"/><path fill="#37353a" d="m351 291-1 3h-6v-2c2.463-1.231 4.28-1.072 7-1"/><path fill="#1a1213" d="m385 272-1 5h-2v-3l-3-1c2-1 2-1 6-1"/><path fill="#282123" d="m256 274 3 1c1.188 2.563 1.188 2.563 2 5l-3 1c-1.46-2.647-2-3.894-2-7"/><path fill="#b92c20" d="M363 263h1l1 11-4-8h2z"/><path fill="#b34141" d="m399 253 3 3-2 5-3-2z"/><path fill="#f8ebe1" d="M395 249h3v7h-2z"/><path fill="#34353a" d="M350 248c2.063.438 2.063.438 4 1-2.174 2.5-3.73 3.436-7 4 1.875-3.875 1.875-3.875 3-5"/><path fill="#69605e" d="M255 249h6v3l-6 1z"/><path fill="#120f0c" d="M439 217c1.6 4.002.293 7.046-1 11h-1c-.25-7.625-.25-7.625 2-11"/><path fill="#111010" d="M429 221h3l-1 5h-4z"/><path fill="#c4c6c5" d="m432 217 3 2c.188 3.125.188 3.125 0 6l-1.875-2.375c-2.024-2.593-2.024-2.593-4.125-4.625z"/><path fill="#14120e" d="M255 213v8h-2v-5l-2-1c3-2 3-2 4-2"/><path fill="#a95f5a" d="m436 188 5 1-1 5-3-1 1-1-2-1z"/><path fill="#636270" d="m311 169 1 2 3-1 1 4h-4l-1 2z"/><path fill="#9b3333" d="M306 296c2.688.313 2.688.313 5 1v2h-8c1.188-1.562 1.188-1.562 3-3"/><path fill="#4d4342" d="M341 291c-1.625 1.563-1.625 1.563-4 3-3.25-.312-3.25-.312-6-1v-1q1.935-.543 3.875-1.062l2.18-.598C339 290 339 290 341 291"/><path fill="#18140c" d="M255 279h3l-1 9c-1.748-2.623-2.515-3.995-3-7z"/><path fill="#f1c9c2" d="M332 273h1l1 9-4-2z"/><path fill="#c2c5c1" d="M317 259h2l3 6-4 2z"/><path fill="#333331" d="M327 257v1l-12 1c3.82-3.82 7.009-2.848 12-2"/><path fill="#a5a6a6" d="m417 253 1 2h2l-2 4h-3z"/><path fill="#64635f" d="m271 250 4 1v4h-4z"/><path fill="#232629" d="M369 246h5l1 3-6 1z"/><path fill="#92918d" d="M288 228v7h-3v-6c2-1 2-1 3-1"/><path fill="#432b0e" d="m435 193 2 1c-1.312 3.438-1.312 3.438-3 7l-3 1c1.199-3.083 2.477-6.063 4-9"/><path fill="#3f3839" d="M390 194h5l-2 5-3-1z"/><path fill="#eb3024" d="m430 179 1 4-4 3c-.187-2.375-.187-2.375 0-5z"/><path fill="#151110" d="m408 175 5 1-1 2c-2.562.625-2.562.625-5 1z"/><path fill="#505061" d="M289 167h1v6h-5l1-3h3z"/><path fill="#212121" d="m358 168 4 2v3h-4z"/><path fill="#23252c" d="M310.188 157.313 313 158l-2 3-7-1c2.038-2.83 2.597-3.04 6.188-2.687"/><path fill="#2f2f35" d="M321 153c2.625-.187 2.625-.187 5 0l-1 3h-6z"/><path fill="#705a32" d="m391 145 2 2-4 7c-.687-1.687-.687-1.687-1-4 1.438-2.75 1.438-2.75 3-5"/><path fill="#534f4b" d="m389 143 3 1-4 9c-1.102-4.408-.587-5.892 1-10"/><path fill="#424348" d="M363 138h3l-1 4h2v2h-4c-1-3-1-3 0-6"/><path fill="#1f1c17" d="M283 133c0 3 0 3-1.5 4.688L280 139l-3-2z"/><path fill="#aba49f" d="m307 122-1 2-3-1c-2.657.88-2.657.88-5 2l-1-2c3.782-1.837 5.946-2.158 10-1"/></svg>